<svg xmlns="http://www.w3.org/2000/svg" width="256" height="256"><path fill-opacity=".016" d="M0 128.004v128.004l128.25-.254 128.25-.254.254-127.75L257.008 0H0v128.004m.485.496c0 70.4.119 99.053.265 63.672.146-35.38.146-92.98 0-128C.604 29.153.485 58.1.485 128.5" fill="#1976D2" fill-rule="evenodd"/><path fill-opacity=".127" d="M30.25 41.64c-.875.369-1.25 3.374-1.25 10.024 0 9.292.081 9.619 3.739 15.167 2.057 3.118 6.242 8.257 9.299 11.419 3.058 3.162 5.289 5.75 4.958 5.75-1.757 0-9.297-6.707-13.119-11.668L29.5 66.65l-.296 6.682c-.163 3.675.062 7.303.5 8.062.438.76 3.383 3.481 6.546 6.048 6.09 4.944 6.257 5.208 4.772 7.557-.778 1.23-1.813.647-5.769-3.25C32.601 89.137 30.109 87 29.716 87c-.394 0-.716 3.292-.716 7.315v7.315l3.624 1.728c1.993.95 3.372 1.979 3.064 2.287-.307.307-1.588-.162-2.846-1.043-1.258-.881-2.637-1.602-3.065-1.602-.427 0-.777 3.002-.777 6.671 0 4.866.458 7.178 1.694 8.543 1.592 1.759 1.592 1.833 0 1.222-1.533-.588-1.694.475-1.694 11.207l-.001 11.857 47.251-.3 47.25-.299 5.506-3.701c11.561-7.77 20.087-12.2 23.478-12.2 2.029 0 18.16-7.555 25.516-11.95 6.43-3.842 23.866-11.19 30-12.644 4.125-.977 7.837-2.053 8.248-2.39.412-.337-1.317-3.966-3.842-8.064-15.154-24.594-35.857-39.936-62.797-46.538-3.36-.823-13.984-1.889-23.609-2.367-16.886-.84-17.561-.8-19.25 1.152-1.439 1.663-1.75 1.736-1.75.412 0-1.363-1.401-1.611-9.114-1.611h-9.113l.568 4.75.568 4.75-1.591-4.623-1.591-4.624-6.113-.562c-3.363-.309-6.514-.168-7.002.312-.514.506.56 2.9 2.552 5.685C78.415 53.635 79.251 55 78.639 55c-.264 0-2.6-2.888-5.192-6.418-4.747-6.465-7.083-8.047-9.586-6.492-1.024.635.326 2.546 5.445 7.709 6.009 6.06 6.62 7.018 5.22 8.179-1.342 1.115-1.975.949-4.138-1.081-1.404-1.318-4.355-5.097-6.557-8.397-4.083-6.119-6.517-7.93-8.777-6.533-1.936 1.196-.547 4.195 6.084 13.139 3.3 4.449 5.78 8.309 5.512 8.577-.815.815-9.535-10.841-12.294-16.433-2.461-4.987-2.785-5.25-6.473-5.25-3.04 0-3.878.38-3.861 1.75.047 3.762 4.058 10.297 10.528 17.156 5.342 5.662 6.508 7.43 5.533 8.385C57.441 71.877 41 50.594 41 44.588c0-.809-.337-1.67-.75-1.914-1.367-.809-8.729-1.57-10-1.034m175.267 64.006c-4.941 1.357-9.666 3.026-10.5 3.709-.835.684-3.992 2.285-7.017 3.558-3.025 1.273-6.4 2.798-7.5 3.389-9.559 5.133-21.718 10.552-25 11.141-5.59 1.004-26.5 12.617-26.5 14.717 0 .187 21.937.228 48.75.09l48.75-.249-.226-6.589c-.396-11.591-7.179-32.547-10.461-32.322-.722.05-5.356 1.2-10.296 2.556m-88.808 41.978c-1.058 1.058-.857 24.857.234 27.725 1.03 2.711 3.842 4.054 6.416 3.067 2.038-.782 2.132-3.042.173-4.138-1.15-.644-1.53-3.643-1.75-13.8-.265-12.195-.405-12.996-2.323-13.27-1.123-.161-2.36.027-2.75.416m52 1c-.39.39-.709 1.534-.709 2.543 0 1.379.76 1.833 3.07 1.833 2.611 0 3.021-.336 2.75-2.25-.316-2.221-3.635-3.602-5.111-2.126m53.958.043c-.367.366-.667 1.491-.667 2.5 0 1.289.742 1.833 2.5 1.833 2 0 2.5-.5 2.5-2.5 0-1.758-.544-2.5-1.833-2.5-1.009 0-2.134.3-2.5.667m-189.364 8.476c-2.757 1.4-4.303 5.729-4.303 12.052 0 3.865.517 5.413 2.455 7.35 2.83 2.831 4.006 2.985 7.778 1.017 1.587-.828 2.975-1.035 3.309-.494.997 1.613 6.458 1.106 6.458-.599 0-.843-.675-1.791-1.5-2.107-1.157-.444-1.5-2.369-1.5-8.41 0-4.309-.413-8.089-.917-8.401-1.946-1.202-9.688-1.471-11.78-.408m25.744-.193c-.799.505-2.712.667-4.25.359L52 156.75v10.625c0 10.62.001 10.625 2.46 10.625 2.39 0 2.467-.232 2.75-8.25l.29-8.25h6l.29 8.25c.283 8.018.36 8.25 2.75 8.25 2.41 0 2.46-.164 2.46-8.066 0-7.703-.997-11.564-3.4-13.169-1.517-1.013-4.806-.92-6.553.185m17.005 1.844c-2.514 2.514-3.052 3.86-3.052 7.629 0 3.269.581 5.158 2.033 6.61 1.866 1.866 1.907 2.215.5 4.223-2.243 3.203-1.932 7.351.69 9.187 4.134 2.896 10.663 1.298 12.667-3.1 1.333-2.926 1.498-24.985.193-25.792-.504-.311-2.956-.846-5.448-1.188-4.118-.564-4.81-.342-7.583 2.431m21.275-.398c-2.525 2.171-2.787 3.019-2.806 9.084-.019 6.168.207 6.885 2.91 9.212 2.427 2.089 3.628 2.429 6.989 1.978 5.828-.781 7.58-3.4 7.58-11.326 0-5.499-.357-6.792-2.455-8.889-3.269-3.27-8.457-3.295-12.218-.059m33.976-1.253c-2.757 1.4-4.303 5.729-4.303 12.052 0 3.865.517 5.413 2.455 7.35 2.83 2.831 4.006 2.985 7.778 1.017 1.587-.828 2.975-1.035 3.309-.494.997 1.613 6.458 1.106 6.458-.599 0-.843-.675-1.791-1.5-2.107-1.157-.444-1.5-2.369-1.5-8.41 0-4.309-.413-8.089-.917-8.401-1.946-1.202-9.688-1.471-11.78-.408m51.061.027c-2.979 1.442-4.364 5.018-4.364 11.266 0 7.379 2.237 10.064 8.384 10.064 6.909 0 9.116-2.69 9.116-11.114 0-5.947-.262-6.784-2.806-8.973-2.943-2.531-6.729-2.987-10.33-1.243m26.305-.506c-.365.365-2.465.593-4.666.507l-4.003-.157V178h2.5c2.458 0 2.5-.135 2.5-7.981 0-7.629.108-8.008 2.443-8.594 3.937-.988 4.557.187 4.557 8.634 0 7.804.043 7.941 2.5 7.941 2.481 0 2.5-.067 2.5-9 0-7.667-.296-9.296-2-11-1.977-1.977-5.043-2.624-6.331-1.336M149 158.943c0 1.545.811 2.005 3.966 2.25l3.966.307-3.966 6.824c-5.601 9.637-5.529 9.819 3.784 9.468 6.092-.23 7.75-.613 7.75-1.792 0-1.075-1.318-1.585-4.655-1.801l-4.656-.301 4.398-7.699c2.419-4.234 4.401-8.037 4.406-8.449.004-.412-3.368-.75-7.493-.75-6.759 0-7.5.192-7.5 1.943m19 8.557V178h5v-21h-5v10.5m54 0V178h5v-21h-5v10.5m-120.926-6.089c-1.801 2.17-2.426 8.063-1.115 10.512.848 1.585 1.923 2.11 3.858 1.887 2.476-.286 2.706-.707 2.981-5.44.215-3.701-.153-5.582-1.321-6.75-1.988-1.988-2.891-2.031-4.403-.209m83.449.209c-1.168 1.168-1.536 3.049-1.321 6.75.266 4.58.56 5.167 2.742 5.475 4.614.651 6.863-6.82 3.499-11.622-1.854-2.648-2.764-2.759-4.92-.603m-149.916.962c-1 2.605-.686 10.251.45 10.953.581.359 2.156.377 3.5.04 2.25-.565 2.443-1.085 2.443-6.594 0-5.93-.025-5.981-2.893-5.981-1.716 0-3.14.644-3.5 1.582m44 0c-1.981 5.162.454 10.168 4.345 8.933 1.699-.539 2.048-1.49 2.048-5.582 0-4.774-.093-4.933-2.893-4.933-1.716 0-3.14.644-3.5 1.582m54 0c-1 2.605-.686 10.251.45 10.953.581.359 2.156.377 3.5.04 2.25-.565 2.443-1.085 2.443-6.594 0-5.93-.025-5.981-2.893-5.981-1.716 0-3.14.644-3.5 1.582M82.5 176.226c-3.732 2.058-4.834 6.325-1.922 7.442 2.387.916 4.615-1.953 4.246-5.466-.289-2.751-.537-2.962-2.324-1.976m51.201 7.406c-.385.386-.701 2.682-.701 5.102 0 3.998-.19 4.341-2.074 3.743-2.924-.928-7.46 1.206-8.796 4.138-1.472 3.23-1.449 11.591.041 14.862 1.37 3.005 4.381 4.024 7.919 2.679 1.381-.525 3.738-.72 5.237-.434l2.726.521-.276-15.359c-.233-12.927-.522-15.406-1.826-15.656-.852-.163-1.864.018-2.25.404m-68.034 4.035c-.367.366-.667 1.716-.667 3 0 1.407-.595 2.333-1.5 2.333-.825 0-1.5.689-1.5 1.531 0 .843.675 1.791 1.5 2.107 1.144.439 1.5 2.312 1.5 7.898 0 9.312 2.428 12.156 8.418 9.857 2.663-1.022 1.958-4.393-.918-4.393-2.41 0-2.5-.233-2.5-6.5s.09-6.5 2.5-6.5c1.833 0 2.5-.533 2.5-2s-.667-2-2.5-2c-2.111 0-2.5-.467-2.5-3 0-2.242-.463-3-1.833-3-1.009 0-2.134.3-2.5.667m-26.998 4.997c-.365.365-2.465.593-4.666.507L30 193.014V214h2.5c2.438 0 2.5-.18 2.5-7.3 0-7.817.912-9.7 4.7-9.7 1.787 0 2.3-.558 2.3-2.5 0-2.351-1.815-3.352-3.331-1.836m7.711 1.685c-2.287 1.967-2.79 3.309-3.097 8.25-.467 7.522 1.075 10.605 5.908 11.807 7.906 1.967 12.484-3.025 11.564-12.609-.386-4.017-1.101-5.697-3.182-7.488-3.438-2.957-7.726-2.941-11.193.04m35.935-1.342C79.11 194.298 78 197.122 78 203.98c0 5.155.384 6.495 2.455 8.565 3.043 3.044 8.253 3.259 11.777.487 2.977-2.342 4.093-7.772 2.779-13.532-1.472-6.454-6.46-9.005-12.696-6.493m25.185-.047c-1.1.45-3.237.587-4.75.304l-2.75-.514V214h2.5c2.458 0 2.5-.135 2.5-7.981 0-7.767.07-7.998 2.607-8.635 3.594-.902 4.359.735 4.378 9.366.015 7.063.08 7.25 2.515 7.25 2.472 0 2.5-.097 2.5-8.545 0-7.74-.231-8.777-2.455-11-2.581-2.582-3.773-2.835-7.045-1.495m37.931 1.346c-2.687 2.311-2.931 3.067-2.931 9.08 0 8.635 2.175 11.149 9.553 11.04 5.11-.075 7.697-1.403 6.501-3.339-.37-.598-2.682-1.087-5.138-1.087-3.873 0-4.595-.34-5.441-2.565-.536-1.411-.975-2.648-.976-2.75 0-.102 2.164-.035 4.809.149 5.614.389 7.543-1.179 7.406-6.02-.115-4.052-2.017-5.844-6.896-6.498-3.245-.435-4.484-.077-6.887 1.99m3.819 2.345c-.687.284-1.25 1.378-1.25 2.432 0 1.473.711 1.917 3.07 1.917 2.607 0 3.021-.337 2.75-2.24-.319-2.229-2.188-3.092-4.57-2.109m-100.643 1.931c-.334.87-.607 3.083-.607 4.918 0 5.041.898 6.5 4 6.5 3.752 0 5.099-4.296 3.37-10.75-.726-2.709-5.788-3.209-6.763-.668m34.828-.272c-.305.794-.415 3.637-.245 6.317.298 4.679.429 4.873 3.31 4.873h3v-6c0-5.805-.09-6.01-2.756-6.317-1.712-.197-2.965.23-3.309 1.127m43.172.272c-1 2.605-.686 10.251.45 10.953.581.359 2.156.377 3.5.04 2.25-.565 2.443-1.085 2.443-6.594 0-5.93-.025-5.981-2.893-5.981-1.716 0-3.14.644-3.5 1.582" fill="#1976D2" fill-rule="evenodd"/><path fill-opacity=".092" d="M29.667 42.667c-.367.366-.667 4.621-.667 9.455 0 9.681-.118 9.407 9.219 21.522 2.596 3.369 7.025 7.781 9.843 9.805 7.249 5.208 13.018 10.704 19.308 18.394 5.968 7.296 13.053 19.799 14.114 24.907C82.87 133.424 88 128.74 88 120.8c0-5.337-2.76-13.309-9.386-27.115-4.25-8.855-5.213-10.039-17.905-22.006-13.297-12.538-18.29-19.227-20.101-26.929-.594-2.53-1.032-2.75-5.46-2.75-2.648 0-5.115.3-5.481.667M44.46 44.75c1.287 5.229 5.516 11.036 16.656 22.869 6.151 6.535 12.907 14.211 15.012 17.058C80.815 91.017 82 91.839 82 88.75c0-3.057-5.794-12.654-11.793-19.532-8.004-9.177-13.879-17.247-16.264-22.339C51.777 42.253 51.454 42 47.721 42c-3.793 0-3.913.101-3.261 2.75M54 43.02c0 1.572 3.938 7.46 12.91 19.301C81.011 80.933 86 90.512 86 98.976c0 2.148.427 4.17.95 4.493 3.173 1.961 4.303-15.458 1.439-22.185C84.523 72.201 82.967 69.977 73.5 60 68 54.204 62.61 47.783 61.523 45.731 59.967 42.796 58.954 42 56.773 42 55.248 42 54 42.459 54 43.02m10 .087c0 .608 3.073 4.321 6.829 8.25 3.757 3.928 7.837 8.605 9.068 10.393 1.232 1.788 2.659 3.25 3.171 3.25 1.849 0 .868-2.716-2.372-6.57-1.817-2.162-5.444-6.742-8.059-10.18C69.68 44.362 67.149 42 65.942 42 64.874 42 64 42.498 64 43.107m7-.658c0 .297 2.767 4.255 6.148 8.795 3.382 4.541 7.24 10.618 8.574 13.506 1.333 2.888 2.683 5.25 3 5.25 1.172 0-.773-16.689-2.564-22l-1.855-5.5-6.652-.296c-3.658-.162-6.651-.052-6.651.245m16-.014c0 .239.628 3.501 1.395 7.25.767 3.748 1.705 9.877 2.085 13.62.409 4.024 1.119 6.662 1.737 6.456 1.458-.486 11.593-20.546 12.385-24.511l.648-3.25h-9.125c-5.019 0-9.125.196-9.125.435m19.487 1.815c-.356 1.237-3.717 8.775-7.469 16.75-6.208 13.197-6.861 15.199-7.271 22.283-.248 4.28-.118 7.988.289 8.239.406.251 2.922-2.126 5.59-5.283 2.667-3.156 7.005-7.704 9.638-10.105 2.633-2.401 5.965-6.376 7.405-8.833 3.037-5.182 8.298-19.762 8.318-23.051.012-2.145-.356-2.25-7.92-2.25-7.368 0-7.978.16-8.58 2.25m17.496 2c-4.159 16.164-8.054 23.522-16.405 30.991C99.58 84.395 92.509 94.902 91.589 101c-1.742 11.549-1.827 13-.758 13 1.201 0 4.049-2.791 7.833-7.676 1.354-1.747 7.045-6.661 12.648-10.92 5.604-4.259 13.118-10.318 16.699-13.464 5.732-5.037 6.769-6.519 8.678-12.39 1.938-5.96 1.999-6.732.579-7.277-1.308-.502-1.207-.752.572-1.409 1.188-.44 2.16-1.19 2.16-1.668 0-.722-4.497-6.73-11.562-15.446-2.199-2.712-3.268-2.112-4.455 2.5m-94.976 28l.007 6.25L42.532 93c7.435 6.875 15.227 14.975 17.315 18 4.975 7.207 9.557 15.578 11.083 20.25 1.395 4.27 1.355 4.257 6.07 1.916 3.014-1.497 3.478-2.197 3.343-5.043-.221-4.64-5.498-14.878-12.365-23.992-5.359-7.112-8.401-9.843-24.736-22.21-2.892-2.189-6.942-6.191-9-8.894-2.058-2.702-4.079-4.939-4.492-4.97-.413-.031-.747 2.756-.743 6.193m95.246 14.119c-2.064 1.853-6.228 4.958-9.253 6.899-8.724 5.599-17.239 14.453-20.813 21.642-1.753 3.525-3.187 7.043-3.187 7.818 0 2.294 5.739-2.36 9.687-7.856 2.368-3.295 5.388-5.861 9.448-8.025 6.325-3.371 12.579-10.231 17.397-19.084 3.049-5.601 1.935-6.075-3.279-1.394m-95.049 5.745c.295 7.345.312 7.385 3.796 9.038 7.126 3.381 16.509 14.438 23.685 27.907 4.476 8.403 3.969 7.952 7.587 6.745 4.835-1.613 4.985-2.054 2.5-7.386-4.609-9.893-20.991-29.554-33.007-39.615l-4.858-4.067.297 7.378M29 109.872c0 5.859.012 5.884 5.75 11.242 3.163 2.953 8.706 8.411 12.318 12.128 6.415 6.6 8.131 7.553 10.683 5.933 1.539-.977-1.065-6.756-7.064-15.675-5.884-8.748-10.118-13.475-14.929-16.666-6.147-4.078-6.758-3.804-6.758 3.038m177-3.782c-3.575 1.025-8.75 2.954-11.5 4.286l-20.7 10.023c-8.636 4.18-16.905 7.601-18.377 7.601-2.719 0-19.342 8.449-23.593 11.992-2.313 1.927-1.982 1.942 45.92 1.975L226 142l-.007-5.25c-.009-6.552-3.103-19.68-6.39-27.114-2.856-6.458-3.165-6.538-13.603-3.546m-101.923 7.987c-4.398 4.398-3.802 5.666.909 1.934 4.736-3.751 5.654-5.011 3.65-5.011-.815 0-2.867 1.385-4.559 3.077M29 128.426c0 12.185 1.126 13.581 10.939 13.56 7.433-.015 11.061-.749 11.061-2.238 0-1.349-16.87-18.121-19.75-19.635L29 118.93v9.496m88 34.105c0 15.764.064 15.935 5.666 15.294l2.834-.325-2.25-1.972c-2.113-1.852-2.25-2.75-2.25-14.75 0-12.111-.104-12.778-2-12.778-1.908 0-2 .667-2 14.531M168.71 151c.29 1.107 1.364 2 2.407 2 1.216 0 1.883-.708 1.883-2 0-1.446-.667-2-2.406-2-1.914 0-2.3.409-1.884 2m53.477-.25c.183.963 1.341 1.894 2.573 2.07 1.701.242 2.24-.179 2.24-1.75 0-1.557-.638-2.07-2.573-2.07-1.912 0-2.488.45-2.24 1.75M99.4 157.452c-3.777 1.615-4.4 3.088-4.4 10.407 0 7.933 1.72 10.141 7.902 10.141 6.776 0 8.598-2.241 8.598-10.577 0-5.065-.409-6.757-2-8.274-2.775-2.645-6.442-3.261-10.1-1.697m84.954-.734c-4.088.751-5.817 3.937-5.836 10.76-.023 8.094 1.854 10.522 8.137 10.522 6.458 0 8.345-2.349 8.345-10.389 0-8.777-3.373-12.229-10.646-10.893m-153.081 2.988c-2.198 3.355-2.458 14.161-.401 16.64 1.587 1.913 6.298 2.168 9.396.511 1.603-.858 2.232-.858 2.518 0 .587 1.762 6.214 1.439 6.214-.357 0-.825-.675-1.5-1.5-1.5-1.214 0-1.5-1.599-1.5-8.393 0-9.516-.076-9.607-8.059-9.607-4.217 0-5.14.375-6.668 2.706M52 167.57c0 10.389.038 10.564 2.25 10.25 2.091-.297 2.259-.849 2.373-7.78.106-6.405.423-7.658 2.236-8.862 4.085-2.713 5.141-1.01 5.141 8.291 0 7.864.156 8.531 2 8.531 1.857 0 2-.667 2-9.3 0-5.9-.439-9.739-1.2-10.5-1.474-1.474-6.254-1.563-8.866-.165-1.333.714-1.934.714-1.934 0 0-.569-.9-1.035-2-1.035-1.874 0-2 .667-2 10.57m23.537-8.611c-.976 1.078-2 3.969-2.277 6.424-.437 3.88-.147 4.82 2.208 7.176 1.492 1.492 2.289 2.988 1.772 3.326-.517.338-1.496 1.669-2.175 2.958-3.804 7.217 6.897 12.276 12.611 5.962 1.502-1.658 1.887-4.139 2.183-14.033.41-13.741.415-13.733-7.454-13.757-3.803-.011-5.545.482-6.868 1.944m53.736.747c-2.198 3.355-2.458 14.161-.401 16.64 1.587 1.913 6.298 2.168 9.396.511 1.603-.858 2.232-.858 2.518 0 .587 1.762 6.214 1.439 6.214-.357 0-.825-.675-1.5-1.5-1.5-1.214 0-1.5-1.599-1.5-8.393 0-9.516-.076-9.607-8.059-9.607-4.217 0-5.14.375-6.668 2.706M150 159c0 1.619.667 2 3.5 2 1.925 0 3.5.259 3.5.576 0 .316-1.8 3.657-4 7.424-2.2 3.767-4 7.333-4 7.924 0 .672 2.816 1.076 7.5 1.076 6.763 0 7.5-.191 7.5-1.945 0-1.595-.814-2-4.519-2.25l-4.519-.305 4.519-7.708c2.486-4.24 4.519-7.952 4.519-8.25 0-.298-3.15-.542-7-.542-6.333 0-7 .19-7 2m19 8.5c0 9.833.127 10.5 2 10.5s2-.667 2-10.5-.127-10.5-2-10.5-2 .667-2 10.5m31.215-.25c.272 9.768.391 10.265 2.535 10.57 2.173.308 2.25.045 2.25-7.715 0-7.112.239-8.162 2.078-9.147 4.054-2.169 4.922-.668 4.922 8.511 0 7.864.156 8.531 2 8.531 1.857 0 2-.667 2-9.3 0-5.9-.439-9.739-1.2-10.5-1.572-1.572-7.039-1.541-8.725.05-1.06 1-1.417 1-1.783 0-.252-.687-1.337-1.25-2.41-1.25-1.827 0-1.934.654-1.667 10.25m22.785.25c0 9.833.127 10.5 2 10.5s2-.667 2-10.5-.127-10.5-2-10.5-2 .667-2 10.5m-187.757-6.343c-1.791 1.791-1.604 11.298.252 12.839 1.206 1 1.989.917 4.048-.432 2.316-1.517 2.526-2.204 2.255-7.369-.274-5.241-.498-5.718-2.805-5.988-1.379-.161-3.066.266-3.75.95m43.818.269c-.651.784-1.043 3.372-.872 5.75.293 4.069.488 4.324 3.311 4.324 2.951 0 3.005-.094 3.3-5.75.287-5.503.196-5.75-2.128-5.75-1.335 0-2.96.642-3.611 1.426m20.974.508c-1.571 2.937-1.256 9.703.536 11.495 3.524 3.523 6.762.683 6.762-5.929 0-2.416-.58-5.092-1.289-5.947-1.774-2.137-4.762-1.948-6.009.381m33.208-.777c-1.794 1.794-1.604 11.299.257 12.843 1.203.999 1.919.966 3.625-.167 1.77-1.175 2.126-2.407 2.131-7.372.006-5.537-.164-5.982-2.382-6.254-1.313-.161-2.947.266-3.631.95m50.957.043c-.66.66-1.2 3.495-1.2 6.3 0 6.933 2.822 9.536 6.429 5.929 1.792-1.792 2.107-8.558.536-11.495-1.167-2.18-3.963-2.536-5.765-.734M81.762 176.073c-3.892 2.268-4.503 7.927-.855 7.927 2.606 0 4.093-2.07 4.093-5.7 0-3.51-.475-3.836-3.238-2.227M133 188.5v4.5h-3.845c-5.273 0-7.217 2.414-7.793 9.676-.589 7.445.982 10.707 5.365 11.134 1.749.17 4.101-.183 5.227-.785 1.372-.734 2.046-.754 2.046-.06 0 .569.9 1.035 2 1.035 1.911 0 2-.667 2-15v-15h-2.5c-2.296 0-2.5.367-2.5 4.5m-66.333-.833c-.367.366-.667 1.533-.667 2.593 0 1.086-.873 2.156-2 2.45-2.318.606-2.726 3.29-.5 3.29 1.178 0 1.5 1.382 1.5 6.435C65 212.022 66.034 214 71.049 214c3.368 0 4.036-.311 3.75-1.75-.232-1.165-1.093-1.645-2.574-1.437-2.132.3-2.225-.005-2.225-7.25 0-7.401.054-7.563 2.5-7.563 1.556 0 2.5-.567 2.5-1.5s-.944-1.5-2.5-1.5c-2.111 0-2.5-.467-2.5-3 0-2.821-1.674-3.993-3.333-2.333M30 203.5V214h2.5c2.458 0 2.5-.135 2.5-7.971v-7.972l3.248-.842c3.777-.978 5.128-4.215 1.76-4.215-1.177 0-3.01.466-4.074 1.035-1.333.714-1.934.714-1.934 0 0-.569-.9-1.035-2-1.035-1.873 0-2 .667-2 10.5m16.78-9.436c-2.303 1.341-4.102 8.396-3.277 12.845C44.504 212.303 46.537 214 52 214c6.502 0 8.333-2.183 8.333-9.934 0-8.2-1.982-11.076-7.606-11.036-2.325.017-5.001.482-5.947 1.034m33.625 1.041c-2.787 3.08-2.762 15.43.036 17.476 2.946 2.154 10.157 1.821 12.559-.581 3.418-3.418 2.479-15.645-1.4-18.235-2.421-1.616-9.26-.798-11.195 1.34M100 203.57c0 10.28.059 10.56 2.173 10.25 2.025-.298 2.156-.808 1.935-7.504-.22-6.629-.051-7.308 2.186-8.773 4.521-2.962 5.706-1.288 5.706 8.064 0 7.726.159 8.393 2 8.393 1.857 0 2-.667 2-9.3 0-5.9-.439-9.739-1.2-10.5-1.474-1.474-6.254-1.563-8.866-.165-1.333.714-1.934.714-1.934 0 0-.569-.9-1.035-2-1.035-1.874 0-2 .667-2 10.57m45-8.57c-2.917 2.917-2.884 14.116.051 17.051 2.733 2.733 12.232 2.491 12.768-.325.295-1.555-.187-1.691-3.893-1.098-3.456.553-4.477.339-5.578-1.167-.741-1.014-1.348-2.697-1.348-3.74 0-1.653.505-1.812 3.925-1.234 5.434.918 8.075-.674 8.075-4.867 0-1.937-.759-3.997-1.829-4.965-2.63-2.38-9.645-2.181-12.171.345m-95.933 2.419c-1.81 2.182-.948 11.636 1.183 12.973 3.118 1.956 5.211-.428 5.555-6.326.323-5.542-.867-8.066-3.805-8.066-.965 0-2.285.638-2.933 1.419m34.49.804c-2.936 4.191-1.638 11.467 2.218 12.435 3.729.936 5.496-1.93 4.941-8.015-.604-6.624-4.103-8.784-7.159-4.42m43.681-1.061c-.701.701-1.238 3.767-1.238 7.069 0 6.372 1.219 7.792 4.968 5.786 1.871-1.001 2.089-1.875 1.828-7.327-.254-5.322-.578-6.23-2.308-6.478-1.106-.159-2.569.269-3.25.95m20.962.038c-1.637 1.637-1.513 3.8.218 3.8.78 0 2.018.22 2.75.489 2.245.825 4.11-1.036 3.372-3.364-.751-2.364-4.372-2.893-6.34-.925" fill="#1976D2" fill-rule="evenodd"/><path fill-opacity=".15" d="M29.903 42.695c-.478 3.972.508 19.209 1.346 20.79C33.157 67.086 44.065 81 44.979 81 46.97 81 60.863 93.157 66 99.394c6.614 8.031 13.626 19.617 15.194 25.106 1.499 5.247 2.048 5.774 4.297 4.13 1.506-1.101 1.883-2.657 1.877-7.754-.006-5.555-.731-8.023-5.631-19.165-6.849-15.575-10.325-20.447-21.142-29.63-10.063-8.544-15.901-15.856-18.943-23.73L39.391 42.5l-4.696-.305c-2.582-.167-4.739.058-4.792.5M44 42.351c0 .193.521 1.88 1.159 3.75 1.881 5.52 6.27 11.213 18.655 24.196C70.241 77.035 76.625 84.222 78 86.267c4.205 6.256 5.462 4.524 1.856-2.557-2.581-5.068-5.588-9.238-12.407-17.21-6.497-7.595-11.612-14.813-14.35-20.25C51.198 42.474 50.571 42 47.48 42c-1.914 0-3.48.158-3.48.351m10.68.302c-.878.878 2.328 5.974 10.783 17.139C81.081 80.416 86 89.355 86 97.115c0 3.038.48 4.855 1.374 5.198 1.064.408 1.499-1.201 1.933-7.143.48-6.564.195-8.703-1.976-14.835C84.734 73 79.33 65.612 71.769 59.06c-2.052-1.779-5.799-6.345-8.327-10.147-4.232-6.366-6.812-8.209-8.762-6.26m9.487.215c.183.478 3.556 4.415 7.496 8.75 3.94 4.335 8.367 9.232 9.838 10.882 5.261 5.901 1.468-.584-6.119-10.462C70.349 45.486 67.005 42 65.752 42c-1.055 0-1.769.391-1.585.868m7.456.382c.407.688 3.391 4.753 6.631 9.035 3.239 4.282 6.795 9.832 7.901 12.334 1.107 2.501 2.157 4.397 2.334 4.214.715-.74-1.479-16.68-2.97-21.583L83.923 42h-6.521c-4.944 0-6.341.302-5.779 1.25m16.389 1.5c.006 1.513.676 5.225 1.488 8.25.812 3.025 1.482 7.836 1.488 10.691.007 2.855.373 5.414.814 5.687.916.566 11.691-20.458 12.622-24.628l.614-2.75H88l.012 2.75m18.877 0c-.587 1.513-3.688 8.15-6.89 14.75-6.758 13.928-7.986 17.883-7.993 25.75-.007 6.282.874 7.108 3.426 3.214.914-1.395 5.503-6.59 10.197-11.543 9.854-10.398 14.607-19.382 16.753-31.671l.568-3.25h-7.496c-7.253 0-7.532.09-8.565 2.75m16.695 4.854c-3.177 12.651-6.826 18.927-17.352 29.852-5.352 5.556-10.684 12.114-11.848 14.573-2.333 4.927-4.733 18.022-3.525 19.23.421.421 3.35-2.161 6.509-5.737 3.159-3.577 11.006-10.524 17.438-15.439 6.432-4.915 13.553-10.882 15.826-13.26 4.893-5.119 8.322-13.969 6.338-16.359-.982-1.183-.903-1.464.408-1.464 2.873 0 1.741-3.481-2.901-8.918-2.487-2.914-4.978-6.15-5.535-7.19-1.92-3.589-3.656-2.062-5.358 4.712m-94.029 24.88c-.37 2.466-.309 5.088.136 5.827.826 1.373 10.447 10.416 20.309 19.09 7.897 6.945 18.056 21.909 20.944 30.849 1.34 4.15 1.457 4.204 5.827 2.68 4.066-1.418 4.366-2.606 2.204-8.744C74.591 111.736 65.269 99.453 53.029 90c-4.628-3.575-11.556-9.537-15.395-13.25-3.838-3.713-7.075-6.75-7.193-6.75-.118 0-.516 2.018-.886 4.484m96.856 12.635c-1.051 1.172-5.134 4.312-9.072 6.977-11.655 7.885-18.828 15.16-22.821 23.141-1.947 3.891-3.336 7.279-3.086 7.528.582.583 6.568-3.658 6.568-4.653 0-1.96 7.738-9.452 11.985-11.605 5.377-2.724 10.913-8.615 15.904-16.922 3.538-5.889 3.799-8.122.522-4.466m-96.425 5.023c-.007 2.397-.276 5.339-.598 6.538-.481 1.794.147 2.552 3.559 4.293 2.279 1.162 5.999 3.782 8.267 5.82 4.349 3.909 14.282 18.264 17.426 25.185 1.693 3.727 2.126 4.045 4.829 3.539 1.633-.305 3.395-.981 3.917-1.503 3.132-3.132-14.675-27.445-31.136-42.51L30 87.785l-.014 4.357m.598 12.608c-.321.321-.57 3.096-.552 6.167l.032 5.583 12.381 11.752c8.736 8.293 12.856 11.57 13.997 11.132 1.101-.422 1.42-1.302 1-2.752-1.148-3.966-9.9-17.747-14.668-23.097-4.733-5.31-11.087-9.889-12.19-8.785m74.182 9.167c-1.795 1.605-3.009 3.173-2.697 3.485.312.313 2.088-1 3.946-2.917 4.1-4.231 3.272-4.607-1.249-.568M29.75 129.25c-.439 7.851-.338 8.365 2.1 10.629 2.35 2.182 3.16 2.333 9.822 1.829 3.994-.302 7.774-.866 8.401-1.253 1.253-.774-16.7-19.455-18.697-19.455-.754 0-1.327 2.907-1.626 8.25m87.938 19.396c-.379.378-.688 6.494-.688 13.592 0 13.717.64 15.762 4.929 15.762 2.4 0 2.738-1.527.603-2.722-1.149-.643-1.53-3.633-1.75-13.718-.262-11.991-.988-15.021-3.094-12.914m52.235.521c-.748 3.26-.563 3.833 1.239 3.833 1.315 0 1.876-.562 1.661-1.667-.272-1.405-2.664-3.192-2.9-2.166m54 0c-.748 3.26-.563 3.833 1.239 3.833 1.315 0 1.876-.562 1.661-1.667-.272-1.405-2.664-3.192-2.9-2.166m-191.465 9.117c-.825.461-1.239 1.261-.92 1.777.319.517.136.939-.407.939-.559 0-.954 2.887-.91 6.65.06 5.064.52 7.091 1.929 8.5 2.186 2.186 3.077 2.256 7.692.6 2.787-1 3.568-1 3.904 0 .232.688 1.283 1.25 2.337 1.25 2.041 0 2.58-1.472.917-2.5-.55-.34-1-4.416-1-9.059 0-4.643-.337-8.388-.75-8.323-.413.066-.975.007-1.25-.13-1.343-.668-10.227-.441-11.542.296m20.613 9.216c.125 7.831.497 10.5 1.461 10.5.948 0 1.282-2.061 1.254-7.75-.035-7.21.134-7.849 2.431-9.167 4.68-2.686 5.783-1.087 5.783 8.386 0 7.664.19 8.531 1.869 8.531 1.671 0 1.883-.923 2.011-8.75.078-4.812-.287-9.409-.811-10.215-1.006-1.546-8.069-2.311-8.069-.874 0 .461-.675.839-1.5.839s-1.5-.45-1.5-1-.697-1-1.548-1c-1.31 0-1.523 1.616-1.381 10.5M78 158.222c0 .428-.338.665-.75.528s-.824.15-.915.638c-.09.489-.69 1.213-1.333 1.611-.643.397-1.169 2.831-1.169 5.409 0 4.586 1.584 8.07 3.211 7.065 1.875-1.159 1.869 1.614-.008 3.491-1.12 1.12-1.721 2.036-1.336 2.036s.195.505-.422 1.122c-1.211 1.211-.634 3.625 1.345 5.628 2.371 2.401 12.413.735 10.846-1.8-.323-.523-.11-.95.472-.95 1.607 0 1.424-23.648-.191-24.683-1.615-1.035-9.75-1.114-9.75-.095m19.36 1.46c-1.752 1.96-2.089 3.431-1.857 8.106.155 3.142.387 5.825.515 5.962.128.137.309.813.402 1.5.094.688.713 1.137 1.375 1 .663-.137 1.205.176 1.205.696 0 1.393 8.582.646 10.458-.911.885-.734 1.429-1.83 1.21-2.435-.219-.605.025-1.921.542-2.925 1.246-2.418.061-9.067-2.037-11.434-2.53-2.855-9.086-2.61-11.813.441m33.098-1.398c-.825.461-1.239 1.261-.92 1.777.319.517.103.939-.479.939-.637 0-1.059 2.592-1.059 6.5 0 5.167.41 6.91 2 8.5 2.342 2.342 3.181 2.422 7.842.75 2.787-1 3.568-1 3.904 0 .446 1.324 4.276 1.778 4.222.5-.017-.412-.692-1.624-1.5-2.691-.954-1.262-1.468-4.304-1.468-8.691 0-4.306-.453-7.04-1.25-7.551-1.665-1.067-9.405-1.09-11.292-.033m19.786-.034c.226.688 2.063 1.39 4.083 1.56 2.273.192 3.673.828 3.673 1.667 0 .746-.375 1.506-.833 1.69-.864.345-8.167 13.025-8.167 14.179 0 .36 3.375.654 7.5.654 6 0 7.5-.3 7.5-1.5 0-1.111-1.167-1.5-4.5-1.5-4.919 0-5.561-1.041-2.943-4.777.856-1.223 1.193-2.23.75-2.238-.444-.009-.347-.346.216-.75 1.556-1.118 4.574-6.141 4.991-8.309.336-1.742-.251-1.926-6.155-1.926-4.773 0-6.415.336-6.115 1.25m18.827 9.25c.153 9.551.338 10.5 2.049 10.5 1.721 0 1.88-.889 1.88-10.5 0-9.916-.114-10.5-2.048-10.5-1.945 0-2.04.53-1.881 10.5m12.016-8.587c-1.504 1.504-1.892 3.323-1.865 8.739.03 5.808.355 7.067 2.157 8.344 2.395 1.699 9.621 2.342 9.621.856 0-.533.399-.724.886-.422 1.207.746 2.231-2.911 2.501-8.93.234-5.225-1.07-9.814-2.533-8.91-.47.291-.854.125-.854-.367 0-1.826-7.95-1.273-9.913.69M201.5 167.5c0 6.961.37 10.5 1.098 10.5.678 0 1.18-2.775 1.31-7.237.231-7.899 1.898-11.078 5.537-10.557 1.842.264 2.107 1.174 2.555 8.784.381 6.477.856 8.558 2 8.776 1.246.238 1.5-1.284 1.5-8.99 0-5.102-.45-9.752-1-10.333-1.148-1.214-5.1-1.181-7.94.065-1.275.56-2.075.447-2.333-.328-.217-.649-.919-1.18-1.56-1.18-.815 0-1.167 3.167-1.167 10.5m21.654.059c0 9.331.194 10.521 1.673 10.238 1.411-.27 1.718-1.922 1.958-10.559.267-9.595.162-10.238-1.673-10.238-1.821 0-1.958.742-1.958 10.559m-188.08-6.148c-3.125 3.765-1.924 13.621 1.651 13.557 3.796-.068 5.499-2.604 5.64-8.402.138-5.671-.451-6.566-4.324-6.566-.988 0-2.323.635-2.967 1.411m43.523.754c-3.322 4.743-1.074 10.243 3.952 9.671 2.87-.327 2.951-.488 2.951-5.836 0-5.208-.141-5.516-2.653-5.807-1.855-.215-3.134.379-4.25 1.972m21.603-.965c-1.557 1.557-1.557 11.043 0 12.6 2.214 2.214 5.652 1.387 7.274-1.75 1.917-3.707 1.911-4.972-.047-8.896-1.663-3.334-4.957-4.224-7.227-1.954m32.916.16c-3.161 3.809-1.995 13.673 1.609 13.608 4.002-.072 5.398-2.441 5.078-8.617-.283-5.456-.477-5.871-2.889-6.152-1.422-.165-3.131.357-3.798 1.161m49.368 2.333c-1.349 3.227-1.365 4.143-.131 7.25 1.518 3.824 4.647 5.132 7.202 3.011 1.786-1.482 1.969-11.03.245-12.754-2.485-2.485-5.693-1.391-7.316 2.493m-101.459 12.94c-3.77 3.171-3.809 6.686-.081 7.212 3.076.434 5.056-2.125 5.056-6.536 0-3.998-.885-4.118-4.975-.676m53.614 8.061c-.351.352-.639 2.364-.639 4.473 0 3.727-.098 3.833-3.566 3.833-4.064 0-7.775 1.64-6.903 3.05.323.523.138.95-.41.95s-1 .787-1.004 1.75c-.004.963-.069 3.847-.145 6.41-.194 6.534 1.201 8.751 5.269 8.373 1.793-.167 4.046-.628 5.009-1.025 1.048-.432 1.75-.278 1.75.385 0 .609.675 1.107 1.5 1.107 1.264 0 1.5-2.271 1.5-14.441 0-13.146-.559-16.667-2.361-14.865M66.5 188.833c-.275.275-.5 1.292-.5 2.26 0 .968-.755 1.906-1.679 2.084-1.542.297-1.533.468.114 2.115 1.405 1.405 1.822 3.568 1.929 10l.136 8.208 4.25.239c3.132.176 4.25-.138 4.25-1.193 0-.892-.752-1.286-1.996-1.047-2.759.531-4.004-2.257-4.004-8.965 0-4.887.286-5.706 2.25-6.449 1.237-.468 2.588-.651 3-.409.412.243.75-.23.75-1.051 0-.884-1.12-1.621-2.75-1.809-2.062-.237-2.723-.837-2.644-2.399.095-1.874-1.833-2.857-3.106-1.584M31.154 203.5c0 8.414.283 10.5 1.423 10.5 1.104 0 1.423-1.677 1.423-7.477 0-6.836.21-7.615 2.456-9.086 1.351-.885 2.995-1.276 3.655-.869.758.469.936.317.484-.413-.392-.635-.236-1.155.346-1.155S42 194.55 42 194s-.873-1-1.941-1-2.219.45-2.559 1c-.34.55-1.518 1-2.618 1-1.1 0-1.722-.45-1.382-1 .34-.55-.049-1-.864-1-1.215 0-1.482 1.89-1.482 10.5M48 194.195c0 .508-.45.645-1 .305s-1 .084-1 .941-.432 1.559-.96 1.559c-.547 0-.848 3.011-.7 6.994.208 5.564.66 7.297 2.21 8.477 3.147 2.393 13.52 1.069 11.919-1.521-.323-.523-.169-.95.343-.95.511 0 .946-2.925.966-6.5.021-3.575-.371-6.5-.87-6.5-.5 0-.796-.562-.658-1.25.137-.687-.312-1.137-1-1-.687.137-1.25-.139-1.25-.614s-1.8-.863-4-.863-4 .415-4 .922m32.856.949c-3.607 3.607-3.638 13.074-.054 16.658 2.605 2.605 8.91 2.486 11.615-.219 2.974-2.974 2.995-13.171.033-16.133-2.611-2.611-9.117-2.783-11.594-.306m19.806-1.394c-.251.412-.39 5.018-.309 10.234.117 7.553.452 9.544 1.647 9.777 1.227.24 1.5-1.087 1.5-7.292 0-7.115.163-7.685 2.624-9.183 4.778-2.907 5.876-1.377 5.876 8.183 0 7.864.156 8.531 2 8.531 1.852 0 2-.667 2-9 0-5.668-.392-9-1.059-9-.582 0-.789-.437-.459-.971.979-1.585-4.413-2.382-7.279-1.076-1.852.844-2.758.882-3.01.127-.41-1.231-2.845-1.459-3.531-.33m44.588 2.03c-1.719 1.938-2.25 3.763-2.25 7.732 0 6.879 2.773 10.146 8.53 10.052 2.184-.035 4.533-.428 5.22-.873 2.451-1.586 1.187-2.492-2.74-1.965-4.641.622-7.01-.847-7.01-4.348 0-2.154.448-2.389 4.75-2.496 2.613-.066 5.121-.054 5.574.024.454.079.54-.318.191-.881-.348-.564-.156-1.025.426-1.025 1.492 0 1.318-4.263-.262-6.425-.862-1.179-2.861-1.898-5.75-2.069-3.669-.217-4.815.173-6.679 2.274m-96.176 1.631c-1.732 2.087-2.378 7.717-1.229 10.708.616 1.604 1.987 2.807 3.536 3.103 2.105.402 2.802-.088 4.144-2.916 1.649-3.474 1.302-8.492-.763-11.056-1.343-1.668-4.238-1.586-5.688.161m33.961.523C82.466 198.998 82 201.503 82 203.5c0 1.997.466 4.502 1.035 5.566 1.241 2.317 5.215 2.543 6.996.396 1.606-1.935 1.656-8.311.088-11.24-1.493-2.789-5.655-2.958-7.084-.288m44.356-1.193c-.61.417-1.681 2.357-2.379 4.31-1.085 3.034-1.029 4.015.385 6.75 1.878 3.632 4.464 4.115 7.004 1.308 1.269-1.402 1.632-3.276 1.405-7.25-.279-4.886-.527-5.382-2.806-5.618-1.375-.143-2.999.082-3.609.5m19.873.709c-1.743 2.025 1.15 4.756 4.612 4.354 2.051-.238 2.624-.85 2.624-2.804 0-2.057-.531-2.543-3-2.742-1.65-.134-3.556.403-4.236 1.192" fill="#1976D2" fill-rule="evenodd"/></svg>