<?xml version="1.0" encoding="UTF-8"?>
<!DOCTYPE svg PUBLIC "-//W3C//DTD SVG 1.1//EN" "http://www.w3.org/Graphics/SVG/1.1/DTD/svg11.dtd">
<svg version="1.1" xmlns="http://www.w3.org/2000/svg" xmlns:xlink="http://www.w3.org/1999/xlink" x="0" y="0" width="120" height="120" viewBox="0, 0, 120, 120">
  <g id="Livello_1" transform="translate(0, 0)">
    <path d="M47,47.3 C48.6,46.3 53.1,47.6 53.1,47.6 C51.4,45.6 48.8,44.3 46.3,45.1 C44,45.9 42.5,48.3 42.3,51.2 C42.3,51.3 44.5,48.2 47,47.3 z M42.6,65 C48.4,63.1 54.1,57.1 54.1,57 C53,62.3 49.3,66.9 43.8,68.7 C39.7,70 33.6,70 28.6,65.5 C28.6,65.5 37.7,67.1 42.6,65 z M73.1,64.3 C70.6,63.5 67,64.7 67.1,64.7 C69,62.5 71.6,61.4 73.9,62.2 C76.1,63 77.6,65.3 77.8,68.3 C77.8,68.3 75.7,65.2 73.1,64.3 z M34.6,53.8 C34.6,53.8 31.1,52.6 28.5,53.5 C26,54.3 23.8,57.4 23.8,57.4 C24,54.5 25.5,52.1 27.8,51.3 C30,50.6 32.6,51.5 34.6,53.8 z M79.6,75.8 C83.4,77.1 88,80.5 89.6,86.5 C89.5,86.7 89.3,86.8 89.2,86.9 C87.5,85.2 82.5,80.6 78.3,79.5 C73.8,78 67.8,78.5 65.4,78.8 C65.4,78.6 65.3,78.4 65.3,78.2 C69.2,75.2 74.5,74.1 79.6,75.8 z M72.5,96.6 C72.5,96.6 95,104.2 111.9,55.5 C96.3,58.5 76.2,51.3 66.1,40 C50.8,87.6 72.5,96.6 72.5,96.6 z M47.4,79.6 C47.4,79.6 70,72.1 54,23 C43.3,34.9 23,41.2 8.1,38.3 C24.6,85.6 47.4,79.6 47.4,79.6 z M60,-0 C93.2,-0 120,26.9 120,60 C120,93.1 93.1,120 60,120 C26.9,120 0,93.1 0,60 C0,26.9 26.9,-0 60,-0 z M92.3,68.4 C94.8,69.3 96,71.9 96.3,74.6 C96.3,74.6 93.5,70.8 91.6,70.6 C89.2,69.8 85.5,70.9 85.5,70.9 C87.4,68.7 90,67.6 92.3,68.4 z" fill="#64C4AA"/>
  </g>
</svg>
