<?xml version="1.0" encoding="UTF-8"?>
<!DOCTYPE svg PUBLIC "-//W3C//DTD SVG 1.1//EN" "http://www.w3.org/Graphics/SVG/1.1/DTD/svg11.dtd">
<svg version="1.1" xmlns="http://www.w3.org/2000/svg" xmlns:xlink="http://www.w3.org/1999/xlink" x="0" y="0" width="120" height="120" viewBox="0, 0, 120, 120">
  <g id="Livello_1" transform="translate(0, 0)">
    <path d="M88.3,67.1 C85.2,67.1 82.6,69.7 82.6,72.8 C82.6,75.9 85.2,78.5 88.3,78.5 C91.5,78.5 94.1,75.9 94,72.8 C94,69.7 91.5,67.1 88.3,67.1 z M32.8,67.1 C35.9,67.1 38.4,69.7 38.5,72.8 C38.6,75.9 36,78.5 32.8,78.5 C29.7,78.5 27.1,75.9 27.1,72.8 C27.1,69.7 29.7,67.1 32.8,67.1 z M101.4,76.7 C106.9,76.7 111.4,72.2 111.6,66.7 L111.6,59.1 C111.6,55.8 109.2,52.7 105.9,51.8 L98,49.7 L91.2,40.7 C88.4,37.1 84.1,35 79.7,35 L52.9,35 C49.3,35 45.8,36.5 43.4,38.9 L30.9,51.4 L20.9,51.4 C14.1,51.4 8.7,56.8 8.7,63.6 L8.7,66.7 C8.7,72.3 13.1,76.7 18.7,76.7 L21.1,76.7 C23.3,83.2 30.5,86.6 36.9,84.3 C40.5,83 43.3,80.3 44.5,76.7 L76.7,76.7 C78.9,83.2 86.1,86.6 92.5,84.3 C96.1,83 98.9,80.3 100.1,76.7 L101.4,76.7 z M60,-0 C93.1,-0 120,26.9 120,60 C120,93.1 93.1,120 60,120 C26.9,120 0,93.1 0,60 C0,26.9 26.9,-0 60,-0 z" fill="#64C4AA"/>
  </g>
</svg>
