<?xml version="1.0" encoding="UTF-8"?>
<!DOCTYPE svg PUBLIC "-//W3C//DTD SVG 1.1//EN" "http://www.w3.org/Graphics/SVG/1.1/DTD/svg11.dtd">
<svg version="1.1" xmlns="http://www.w3.org/2000/svg" xmlns:xlink="http://www.w3.org/1999/xlink" x="0" y="0" width="120" height="120" viewBox="0, 0, 120, 120">
  <g id="Livello_1" transform="translate(0, 0)">
    <path d="M60,0 C93.137,0 120,26.863 120,60 C120,93.137 93.137,120 60,120 C26.863,120 0,93.137 0,60 C0,26.863 26.863,0 60,0 z M81.459,44.581 C82.452,51.924 80.467,58.97 75.605,63.832 C71.735,67.603 66.476,69.687 60.522,69.687 C55.461,69.687 50.202,68.198 45.24,65.321 C42.66,66.015 39.088,65.122 36.21,62.939 C35.273,62.295 34.194,61.449 33.025,61.43 C32.057,60.371 30.638,60.229 29.463,61.054 C28.371,61.947 28.074,63.534 28.967,64.626 L28.768,64.427 C27.875,63.237 26.287,63.038 25.097,63.931 C23.906,64.824 23.707,66.412 24.601,67.603 L27.677,71.671 L24.501,67.504 C23.608,66.313 22.021,66.114 20.83,67.007 C19.639,67.9 19.441,69.488 20.334,70.679 L23.013,74.251 C32.34,90.426 69.155,119.897 92.474,89.433 C111.724,64.527 90.092,49.245 81.459,44.581 z M48.813,17.988 C43.653,17.988 39.187,19.675 35.813,22.949 C29.066,29.499 28.867,41.208 35.218,51.329 L35.913,52.321 L35.02,53.115 L34.722,53.314 C34.127,54.108 34.325,55.596 35.317,57.184 C35.913,58.176 36.905,59.268 38.195,60.26 C38.691,60.558 39.088,60.855 39.584,61.153 C41.073,61.947 42.561,62.344 43.851,62.244 C44.248,62.244 44.744,62.145 45.042,62.046 L45.736,61.748 L46.431,62.145 C50.996,64.924 55.957,66.412 60.72,66.412 C65.88,66.412 70.346,64.725 73.719,61.451 C78.185,57.084 79.673,50.138 78.185,42.994 C77.391,39.322 75.803,35.552 73.422,31.979 L72.628,30.888 L73.719,29.995 C73.819,29.895 74.017,29.796 74.017,29.697 C74.513,29.002 74.513,28.01 74.017,26.819 C73.422,25.331 72.231,23.842 70.643,22.751 C67.964,20.766 64.59,20.171 63.3,21.262 L62.506,21.858 L61.613,21.362 C57.446,19.179 53.08,17.988 48.813,17.988 z M70.147,42.299 C70.643,42.299 71.139,42.597 71.139,43.192 C71.04,43.093 71.139,44.879 70.742,47.261 C70.346,49.543 69.353,52.421 67.17,54.802 C64.292,57.878 60.125,59.367 54.766,59.367 L54.469,59.367 C53.973,59.367 53.576,58.97 53.576,58.474 C53.576,57.978 53.973,57.581 54.469,57.581 L54.766,57.581 C59.629,57.581 63.3,56.191 65.781,53.611 C67.17,52.123 68.063,50.238 68.559,48.65 C69.452,45.772 69.254,43.391 69.254,43.292 C69.254,42.795 69.552,42.299 70.147,42.299 z M51.194,41.704 C51.69,41.704 52.186,42.002 52.186,42.597 C52.186,42.795 52.484,46.665 49.904,49.543 C48.316,51.131 45.836,52.024 42.66,52.024 L42.462,52.024 C41.966,52.024 41.569,51.627 41.569,51.131 C41.569,50.635 41.966,50.238 42.462,50.238 L42.66,50.238 C45.24,50.238 47.225,49.543 48.515,48.154 C50.599,45.971 50.301,42.696 50.301,42.696 C50.301,42.2 50.599,41.704 51.194,41.704 z M63.697,29.499 C64.193,29.499 64.689,29.796 64.689,30.392 C64.689,30.59 64.987,34.46 62.407,37.338 C60.72,39.124 58.339,40.017 55.163,40.017 L54.965,40.017 C54.469,40.017 54.072,39.62 54.072,39.124 C54.072,38.429 54.469,38.032 54.965,38.032 L55.163,38.032 C57.743,38.032 59.728,37.338 61.018,35.949 C63.102,33.765 62.804,30.491 62.804,30.491 C62.804,29.995 63.102,29.499 63.697,29.499 z" fill="#64C4AA"/>
  </g>
</svg>
