<?xml version="1.0" encoding="UTF-8"?>
<!DOCTYPE svg PUBLIC "-//W3C//DTD SVG 1.1//EN" "http://www.w3.org/Graphics/SVG/1.1/DTD/svg11.dtd">
<svg version="1.1" xmlns="http://www.w3.org/2000/svg" xmlns:xlink="http://www.w3.org/1999/xlink" x="0" y="0" width="120" height="120" viewBox="0, 0, 120, 120">
  <g id="Livello_1" transform="translate(0, 0)">
    <path d="M60,0 C26.9,0 0,26.9 0,60 C0,93.1 26.9,120 60,120 C93.1,120 120,93.1 120,60 C120,26.9 93.1,0 60,0 z M28,104.3 L31.6,39.8 L40.4,39.8 C44.6,6.6 75.8,8.1 79.7,39.8 L88.3,39.8 L92,104.4 L28,104.3 z M48.5,39.8 C49.1,21.1 67.6,14.2 71.8,39.8 L48.5,39.8 z" fill="#64C4AA"/>
  </g>
</svg>
