<?xml version="1.0" encoding="UTF-8"?>
<!DOCTYPE svg PUBLIC "-//W3C//DTD SVG 1.1//EN" "http://www.w3.org/Graphics/SVG/1.1/DTD/svg11.dtd">
<svg version="1.1" xmlns="http://www.w3.org/2000/svg" xmlns:xlink="http://www.w3.org/1999/xlink" x="0" y="0" width="120" height="120" viewBox="0, 0, 120, 120">
  <g id="Livello_1" transform="translate(0, 0)">
    <path d="M60.148,0 C26.987,0 -0,26.843 -0,60.05 C-0,86.396 17.029,108.766 40.729,116.819 L40.729,66.512 L32.364,66.512 C30.97,66.512 29.775,65.319 29.775,63.927 L29.775,25.054 C29.775,23.662 30.97,22.469 32.364,22.469 C33.759,22.469 34.954,23.662 34.954,25.054 L34.954,55.079 L38.041,55.079 L38.041,25.054 C38.041,23.662 39.236,22.469 40.63,22.469 C42.024,22.469 43.219,23.662 43.219,25.054 L43.219,55.079 L46.306,55.079 L46.306,25.054 C46.306,23.662 47.501,22.469 48.895,22.469 C50.289,22.469 51.484,23.662 51.484,25.054 L51.484,55.079 L54.571,55.079 L54.571,25.054 C54.571,23.662 55.766,22.469 57.161,22.469 C58.555,22.469 59.75,23.662 59.75,25.054 L59.75,63.927 C59.75,65.319 58.555,66.512 57.161,66.512 L48.796,66.512 L48.796,119.006 C52.381,119.702 56.065,120 59.849,120 C67.617,120 74.986,118.509 81.857,115.824 L81.857,82.717 L76.878,82.717 C72.696,82.717 69.409,79.337 69.409,75.261 L69.409,29.925 C69.409,25.75 72.795,22.469 76.878,22.469 L82.753,22.469 C86.936,22.469 90.222,25.849 90.222,29.925 L90.222,111.848 C108.048,101.408 119.998,82.121 119.998,60.05 C120.296,26.843 93.409,0 60.148,0 z" fill="#64C4AA"/>
  </g>
</svg>
