<?xml version="1.0" encoding="UTF-8"?>
<!DOCTYPE svg PUBLIC "-//W3C//DTD SVG 1.1//EN" "http://www.w3.org/Graphics/SVG/1.1/DTD/svg11.dtd">
<svg version="1.1" xmlns="http://www.w3.org/2000/svg" xmlns:xlink="http://www.w3.org/1999/xlink" x="0" y="0" width="120" height="120" viewBox="0, 0, 120, 120">
  <g id="Livello_1" transform="translate(0, 0)">
    <path d="M60,0 C93.137,0 120,26.863 120,60 C120,93.137 93.137,120 60,120 C26.863,120 0,93.137 0,60 C0,26.863 26.863,0 60,0 z M82.924,18.01 C80.192,18.083 77.725,19.023 75.347,20.274 C75.347,20.574 73.347,21.774 72.547,22.474 C67.347,27.174 67.347,32.474 68.247,36.774 C69.047,40.674 68.247,41.974 65.147,45.374 L19.947,87.174 C16.547,90.574 16.647,95.974 20.047,99.474 C23.547,102.874 28.947,102.874 32.347,99.374 L74.947,55.874 C78.647,52.374 80.747,51.374 83.747,52.274 C86.647,53.374 90.847,53.374 94.747,50.774 C103.047,45.374 102.547,35.274 102.547,35.274 L101.847,34.174 C101.847,34.174 94.247,39.074 93.347,39.574 C92.047,40.474 87.947,42.374 84.147,36.574 C80.247,30.774 83.447,27.174 84.547,26.474 C85.547,25.974 93.047,20.974 93.047,20.974 L92.347,19.874 C90.256,18.907 87.966,18.275 85.667,18.077 C84.756,17.998 83.838,18.033 82.924,18.01 z M27.23,88.809 C29.192,89.603 28.425,89.113 29.647,90.074 C31.247,91.774 31.247,94.774 29.647,96.374 C27.747,98.074 24.847,98.374 23.147,96.474 C21.347,94.874 21.347,91.774 23.147,90.074 C24.591,88.721 25.389,88.809 27.23,88.809 z" fill="#64C4AA"/>
  </g>
</svg>
