<?xml version="1.0" encoding="UTF-8"?>
<!DOCTYPE svg PUBLIC "-//W3C//DTD SVG 1.1//EN" "http://www.w3.org/Graphics/SVG/1.1/DTD/svg11.dtd">
<svg version="1.1" xmlns="http://www.w3.org/2000/svg" xmlns:xlink="http://www.w3.org/1999/xlink" x="0" y="0" width="120" height="120" viewBox="0, 0, 120, 120">
  <g id="Livello_1">
    <path d="M60.148,0 C26.987,0 -0,26.843 -0,60.05 C-0,86.396 17.029,108.766 40.729,116.819 L40.729,66.512 L32.364,66.512 C30.97,66.512 29.775,65.319 29.775,63.927 L29.775,25.054 C29.775,23.662 30.97,22.469 32.364,22.469 C33.759,22.469 34.954,23.662 34.954,25.054 L34.954,55.079 L38.041,55.079 L38.041,25.054 C38.041,23.662 39.236,22.469 40.63,22.469 C42.024,22.469 43.219,23.662 43.219,25.054 L43.219,55.079 L46.306,55.079 L46.306,25.054 C46.306,23.662 47.501,22.469 48.895,22.469 C50.289,22.469 51.484,23.662 51.484,25.054 L51.484,55.079 L54.571,55.079 L54.571,25.054 C54.571,23.662 55.766,22.469 57.161,22.469 C58.555,22.469 59.75,23.662 59.75,25.054 L59.75,63.927 C59.75,65.319 58.555,66.512 57.161,66.512 L48.796,66.512 L48.796,119.006 C52.381,119.702 56.065,120 59.849,120 C67.617,120 74.986,118.509 81.857,115.824 L81.857,82.717 L76.878,82.717 C72.696,82.717 69.409,79.337 69.409,75.261 L69.409,29.925 C69.409,25.75 72.795,22.469 76.878,22.469 L82.753,22.469 C86.936,22.469 90.222,25.849 90.222,29.925 L90.222,111.848 C108.048,101.408 119.998,82.121 119.998,60.05 C120.296,26.843 93.409,0 60.148,0 z" fill="#64C4AA" display="none"/>
    <path d="M88.3,67.1 C85.2,67.1 82.6,69.7 82.6,72.8 C82.6,75.9 85.2,78.5 88.3,78.5 C91.5,78.5 94.1,75.9 94,72.8 C94,69.7 91.5,67.1 88.3,67.1 z M32.8,67.1 C35.9,67.1 38.4,69.7 38.5,72.8 C38.6,75.9 36,78.5 32.8,78.5 C29.7,78.5 27.1,75.9 27.1,72.8 C27.1,69.7 29.7,67.1 32.8,67.1 z M101.4,76.7 C106.9,76.7 111.4,72.2 111.6,66.7 L111.6,59.1 C111.6,55.8 109.2,52.7 105.9,51.8 L98,49.7 L91.2,40.7 C88.4,37.1 84.1,35 79.7,35 L52.9,35 C49.3,35 45.8,36.5 43.4,38.9 L30.9,51.4 L20.9,51.4 C14.1,51.4 8.7,56.8 8.7,63.6 L8.7,66.7 C8.7,72.3 13.1,76.7 18.7,76.7 L21.1,76.7 C23.3,83.2 30.5,86.6 36.9,84.3 C40.5,83 43.3,80.3 44.5,76.7 L76.7,76.7 C78.9,83.2 86.1,86.6 92.5,84.3 C96.1,83 98.9,80.3 100.1,76.7 L101.4,76.7 z M60,-0 C93.1,-0 120,26.9 120,60 C120,93.1 93.1,120 60,120 C26.9,120 0,93.1 0,60 C0,26.9 26.9,-0 60,-0 z" fill="#64C4AA" display="none"/>
    <path d="M71.8,77.5 C71.3,77 70.7,76.7 70,76.7 C69.3,76.7 68.7,77 68.2,77.5 C66.7,79 64.8,79.8 62.7,79.8 C60.6,79.8 58.7,79 57.2,77.5 L42.6,62.9 C39.6,59.9 39.6,55 42.6,51.9 C43.1,51.4 43.4,50.8 43.4,50.1 C43.4,49.4 43.1,48.8 42.7,48.3 C42.7,48.3 32.4,38.4 31.7,38.4 C31,38.4 30.4,38.7 29.9,39.2 L27.7,41.4 C23.4,45.7 22.7,52.3 25.9,57.5 C35.8,72.1 48.2,84.5 62.8,94.4 C64.9,95.7 67.3,96.4 69.8,96.4 C73.2,96.4 76.5,95 78.9,92.6 L81.1,90.4 C82.1,89.4 82.1,87.8 81.1,86.7 L71.8,77.5 z M98.8,65.2 C100.2,65.2 101.4,64 101.4,62.6 C101.4,38.3 81.6,18.6 57.4,18.6 C56,18.6 54.8,19.8 54.8,21.2 C54.8,22.6 56,23.8 57.4,23.8 C78.8,23.8 96.2,41.2 96.2,62.6 C96.2,64 97.4,65.2 98.8,65.2 z M85.9,65.2 C87.3,65.2 88.4,64 88.4,62.5 C88.4,45.4 74.5,31.5 57.4,31.5 C56,31.5 54.8,32.7 54.8,34.1 C54.8,35.5 56,36.7 57.4,36.7 C71.7,36.7 83.3,48.3 83.3,62.6 C83.3,64 84.5,65.2 85.9,65.2 z M54.8,47.1 C54.8,48.5 56,49.7 57.4,49.7 C64.5,49.7 70.3,55.5 70.3,62.6 C70.3,64 71.5,65.2 72.9,65.2 C74.3,65.2 75.5,64 75.5,62.6 C75.5,52.6 67.4,44.5 57.4,44.5 C56,44.5 54.8,45.7 54.8,47.1 z M84.6,93.9 C86.1,92.5 86.8,90.3 86.8,88.2 C86.8,86.1 86,84.2 84.5,82.7 L75.4,73.6 C73.9,72.1 72,71.3 69.9,71.3 C67.8,71.3 65.9,72.1 64.4,73.6 C63.9,74.1 63.3,74.4 62.6,74.4 C61.9,74.4 61.3,74.1 60.8,73.6 L46.2,59 C45.2,57.9 45.2,56.3 46.2,55.3 C47.7,53.8 48.5,51.9 48.5,49.8 C48.5,47.7 47.7,45.8 46.2,44.3 L37.1,35.2 C35.6,33.7 33.7,32.9 31.6,32.9 C29.5,32.9 27.6,33.7 26.1,35.2 L23.9,37.4 C17.9,43.5 16.8,52.7 21.4,59.9 C21.4,60 21.5,60.1 21.5,60.1 C31.7,75.3 44.6,88.1 59.8,98.4 C59.8,98.4 59.9,98.5 59.9,98.5 C62.8,100.4 66.2,101.4 69.6,101.4 C74.4,101.4 79,99.5 82.4,96.1 L84.6,93.9 z M60,0 C93.1,0 120,26.9 120,60 C120,93.1 93.1,120 60,120 C26.9,120 0,93.1 0,60 C0,26.9 26.9,0 60,0 z" fill="#64C4AA" display="none"/>
    <path d="M60,0 C26.9,0 0,26.9 0,60 C0,93.1 26.9,120 60,120 C93.1,120 120,93.1 120,60 C120,26.9 93.1,0 60,0 z M28,104.3 L31.6,39.8 L40.4,39.8 C44.6,6.6 75.8,8.1 79.7,39.8 L88.3,39.8 L92,104.4 L28,104.3 z M48.5,39.8 C49.1,21.1 67.6,14.2 71.8,39.8 L48.5,39.8 z" fill="#64C4AA"/>
    <path d="M47,47.3 C48.6,46.3 53.1,47.6 53.1,47.6 C51.4,45.6 48.8,44.3 46.3,45.1 C44,45.9 42.5,48.3 42.3,51.2 C42.3,51.3 44.5,48.2 47,47.3 z M42.6,65 C48.4,63.1 54.1,57.1 54.1,57 C53,62.3 49.3,66.9 43.8,68.7 C39.7,70 33.6,70 28.6,65.5 C28.6,65.5 37.7,67.1 42.6,65 z M73.1,64.3 C70.6,63.5 67,64.7 67.1,64.7 C69,62.5 71.6,61.4 73.9,62.2 C76.1,63 77.6,65.3 77.8,68.3 C77.8,68.3 75.7,65.2 73.1,64.3 z M34.6,53.8 C34.6,53.8 31.1,52.6 28.5,53.5 C26,54.3 23.8,57.4 23.8,57.4 C24,54.5 25.5,52.1 27.8,51.3 C30,50.6 32.6,51.5 34.6,53.8 z M79.6,75.8 C83.4,77.1 88,80.5 89.6,86.5 C89.5,86.7 89.3,86.8 89.2,86.9 C87.5,85.2 82.5,80.6 78.3,79.5 C73.8,78 67.8,78.5 65.4,78.8 C65.4,78.6 65.3,78.4 65.3,78.2 C69.2,75.2 74.5,74.1 79.6,75.8 z M72.5,96.6 C72.5,96.6 95,104.2 111.9,55.5 C96.3,58.5 76.2,51.3 66.1,40 C50.8,87.6 72.5,96.6 72.5,96.6 z M47.4,79.6 C47.4,79.6 70,72.1 54,23 C43.3,34.9 23,41.2 8.1,38.3 C24.6,85.6 47.4,79.6 47.4,79.6 z M60,-0 C93.2,-0 120,26.9 120,60 C120,93.1 93.1,120 60,120 C26.9,120 0,93.1 0,60 C0,26.9 26.9,-0 60,-0 z M92.3,68.4 C94.8,69.3 96,71.9 96.3,74.6 C96.3,74.6 93.5,70.8 91.6,70.6 C89.2,69.8 85.5,70.9 85.5,70.9 C87.4,68.7 90,67.6 92.3,68.4 z" fill="#64C4AA" display="none"/>
    <path d="M33.6,79.566 C33.6,79.566 31,95.78 35.1,114.696 C36.2,115.196 37.3,115.596 38.4,116.097 C35.5,106.789 33.1,94.379 33.6,79.566 z M120,60.05 C120,81.668 108.5,100.584 91.5,111.093 C101.7,97.281 104.3,75.263 94.3,42.836 C73,47.139 57,54.245 46.6,63.453 C50.3,69.058 53.9,75.063 56.6,81.268 C59.1,86.972 60.8,92.477 61.5,97.681 C66.6,89.074 72.1,80.067 76.9,72.56 C72.2,82.469 66.9,94.078 61.9,104.687 C61.9,105.488 61.9,106.289 61.8,107.089 C61.4,111.593 60.2,115.997 58.2,120 C57.4,120 56.6,120 55.8,119.9 C66.6,97.681 44.7,64.954 36.9,51.543 C21.3,60.651 10.8,76.664 9.4,92.277 C3.5,82.969 0,71.96 0,60.05 C0,26.922 26.9,0 60,0 C93.1,0 120,26.922 120,60.05 z" fill="#64C4AA" display="none"/>
    <path d="M60,0 C93.137,0 120,26.863 120,60 C120,93.137 93.137,120 60,120 C26.863,120 0,93.137 0,60 C0,26.863 26.863,0 60,0 z M82.924,18.01 C80.192,18.083 77.725,19.023 75.347,20.274 C75.347,20.574 73.347,21.774 72.547,22.474 C67.347,27.174 67.347,32.474 68.247,36.774 C69.047,40.674 68.247,41.974 65.147,45.374 L19.947,87.174 C16.547,90.574 16.647,95.974 20.047,99.474 C23.547,102.874 28.947,102.874 32.347,99.374 L74.947,55.874 C78.647,52.374 80.747,51.374 83.747,52.274 C86.647,53.374 90.847,53.374 94.747,50.774 C103.047,45.374 102.547,35.274 102.547,35.274 L101.847,34.174 C101.847,34.174 94.247,39.074 93.347,39.574 C92.047,40.474 87.947,42.374 84.147,36.574 C80.247,30.774 83.447,27.174 84.547,26.474 C85.547,25.974 93.047,20.974 93.047,20.974 L92.347,19.874 C90.256,18.907 87.966,18.275 85.667,18.077 C84.756,17.998 83.838,18.033 82.924,18.01 z M27.23,88.809 C29.192,89.603 28.425,89.113 29.647,90.074 C31.247,91.774 31.247,94.774 29.647,96.374 C27.747,98.074 24.847,98.374 23.147,96.474 C21.347,94.874 21.347,91.774 23.147,90.074 C24.591,88.721 25.389,88.809 27.23,88.809 z" fill="#64C4AA" display="none"/>
    <path d="M60,0 C93.137,0 120,26.863 120,60 C120,93.137 93.137,120 60,120 C26.863,120 0,93.137 0,60 C0,26.863 26.863,0 60,0 z M81.459,44.581 C82.452,51.924 80.467,58.97 75.605,63.832 C71.735,67.603 66.476,69.687 60.522,69.687 C55.461,69.687 50.202,68.198 45.24,65.321 C42.66,66.015 39.088,65.122 36.21,62.939 C35.273,62.295 34.194,61.449 33.025,61.43 C32.057,60.371 30.638,60.229 29.463,61.054 C28.371,61.947 28.074,63.534 28.967,64.626 L28.768,64.427 C27.875,63.237 26.287,63.038 25.097,63.931 C23.906,64.824 23.707,66.412 24.601,67.603 L27.677,71.671 L24.501,67.504 C23.608,66.313 22.021,66.114 20.83,67.007 C19.639,67.9 19.441,69.488 20.334,70.679 L23.013,74.251 C32.34,90.426 69.155,119.897 92.474,89.433 C111.724,64.527 90.092,49.245 81.459,44.581 z M48.813,17.988 C43.653,17.988 39.187,19.675 35.813,22.949 C29.066,29.499 28.867,41.208 35.218,51.329 L35.913,52.321 L35.02,53.115 L34.722,53.314 C34.127,54.108 34.325,55.596 35.317,57.184 C35.913,58.176 36.905,59.268 38.195,60.26 C38.691,60.558 39.088,60.855 39.584,61.153 C41.073,61.947 42.561,62.344 43.851,62.244 C44.248,62.244 44.744,62.145 45.042,62.046 L45.736,61.748 L46.431,62.145 C50.996,64.924 55.957,66.412 60.72,66.412 C65.88,66.412 70.346,64.725 73.719,61.451 C78.185,57.084 79.673,50.138 78.185,42.994 C77.391,39.322 75.803,35.552 73.422,31.979 L72.628,30.888 L73.719,29.995 C73.819,29.895 74.017,29.796 74.017,29.697 C74.513,29.002 74.513,28.01 74.017,26.819 C73.422,25.331 72.231,23.842 70.643,22.751 C67.964,20.766 64.59,20.171 63.3,21.262 L62.506,21.858 L61.613,21.362 C57.446,19.179 53.08,17.988 48.813,17.988 z M70.147,42.299 C70.643,42.299 71.139,42.597 71.139,43.192 C71.04,43.093 71.139,44.879 70.742,47.261 C70.346,49.543 69.353,52.421 67.17,54.802 C64.292,57.878 60.125,59.367 54.766,59.367 L54.469,59.367 C53.973,59.367 53.576,58.97 53.576,58.474 C53.576,57.978 53.973,57.581 54.469,57.581 L54.766,57.581 C59.629,57.581 63.3,56.191 65.781,53.611 C67.17,52.123 68.063,50.238 68.559,48.65 C69.452,45.772 69.254,43.391 69.254,43.292 C69.254,42.795 69.552,42.299 70.147,42.299 z M51.194,41.704 C51.69,41.704 52.186,42.002 52.186,42.597 C52.186,42.795 52.484,46.665 49.904,49.543 C48.316,51.131 45.836,52.024 42.66,52.024 L42.462,52.024 C41.966,52.024 41.569,51.627 41.569,51.131 C41.569,50.635 41.966,50.238 42.462,50.238 L42.66,50.238 C45.24,50.238 47.225,49.543 48.515,48.154 C50.599,45.971 50.301,42.696 50.301,42.696 C50.301,42.2 50.599,41.704 51.194,41.704 z M63.697,29.499 C64.193,29.499 64.689,29.796 64.689,30.392 C64.689,30.59 64.987,34.46 62.407,37.338 C60.72,39.124 58.339,40.017 55.163,40.017 L54.965,40.017 C54.469,40.017 54.072,39.62 54.072,39.124 C54.072,38.429 54.469,38.032 54.965,38.032 L55.163,38.032 C57.743,38.032 59.728,37.338 61.018,35.949 C63.102,33.765 62.804,30.491 62.804,30.491 C62.804,29.995 63.102,29.499 63.697,29.499 z" fill="#64C4AA" display="none"/>
  </g>
</svg>
