<svg width="70" height="35" viewBox="0 0 70 35" fill="none" xmlns="http://www.w3.org/2000/svg">
<path d="M35 0C15.67 0 0 15.67 0 35H70C70 15.67 54.33 0 35 0Z" fill="#424242"/>
<path d="M43 22.5C41.75 22.5 40.55 22.3 39.43 21.93C39.08 21.82 38.69 21.9 38.41 22.17L36.21 24.37C33.38 22.93 31.06 20.62 29.62 17.78L31.82 15.57C32.1 15.31 32.18 14.92 32.07 14.57C31.7 13.45 31.5 12.25 31.5 11C31.5 10.45 31.05 10 30.5 10H27C26.45 10 26 10.45 26 11C26 20.39 33.61 28 43 28C43.55 28 44 27.55 44 27V23.5C44 22.95 43.55 22.5 43 22.5ZM42 19H44C44 14.03 39.97 10 35 10V12C38.87 12 42 15.13 42 19ZM38 19H40C40 16.24 37.76 14 35 14V16C36.66 16 38 17.34 38 19Z" fill="white"/>
</svg>
