<svg width="20" height="21" viewBox="0 0 20 21" fill="none" xmlns="http://www.w3.org/2000/svg">
<path d="M10 0.0400085C4.5 0.0400085 0 4.54804 0 10.1003C0 15.1203 3.66 19.287 8.44 20.04V13.0119H5.9V10.1003H8.44V7.88138C8.44 5.36129 9.93 3.97575 12.22 3.97575C13.31 3.97575 14.45 4.16652 14.45 4.16652V6.64643H13.19C11.95 6.64643 11.56 7.41953 11.56 8.2127V10.1003H14.34L13.89 13.0119H11.56V20.04C13.9164 19.6664 16.0622 18.4592 17.6099 16.6365C19.1576 14.8137 20.0053 12.4955 20 10.1003C20 4.54804 15.5 0.0400085 10 0.0400085Z" fill="#424242"/>
</svg>
