<?xml version="1.0" encoding="UTF-8"?>
<!DOCTYPE svg PUBLIC "-//W3C//DTD SVG 1.1//EN" "http://www.w3.org/Graphics/SVG/1.1/DTD/svg11.dtd">
<svg version="1.1" xmlns="http://www.w3.org/2000/svg" xmlns:xlink="http://www.w3.org/1999/xlink" x="0" y="0" width="1024" height="1024" viewBox="0, 0, 1024, 1024">
  <g id="Livello_1">
    <g>
      <g>
        <path d="M511.1,126.8 C267.9,126.8 70.8,327.6 70.8,575.3 L490.3,575.3 C492.3,573.7 494.6,572.1 497,570.8 C517.8,559.9 494.7,566.4 525.2,550.4 C531.2,547.2 532.8,541.4 557.1,533.4 L556.9,534 C560.2,525.2 567.1,526.8 573.4,521.3 C577.2,518 585.9,514.5 591,511.5 C595.6,508.8 605.9,504.3 611.3,504 C629.2,502.9 629.2,501.1 636.4,500.4 C646.4,499 647.8,491.9 656.5,489.4 L678.5,480.1 C691.5,473.7 683.8,472.4 704.6,465.2 C728.9,456.9 726.6,451.5 739.5,445.3 C747,441.7 764.8,439.3 773.4,431.7 C787.9,418.8 791.5,427.6 803.2,416.1 C812.9,403 857.2,397.5 867.8,392.7 C875.2,389.4 892.7,386.2 899.8,384.9 C902.9,384.3 907.6,383.5 907.8,384 C908.3,383.8 908.7,383.6 909.2,383.4 C838.7,231.8 686.9,126.8 511.1,126.8 z" fill="#64C4AA" fill-opacity="0.44"/>
        <path d="M544.4,552.6 C515.1,567.2 537.3,561.3 517.3,571.2 C514.9,572.4 512.8,573.8 510.8,575.3 L953.2,575.3 C953.2,512.7 937.5,453.3 909.5,400.1 C907.9,400.7 906,401.2 903.7,401.6 C896.8,402.8 880.1,405.7 873,408.7 C862.9,413.1 820.3,418.1 811,430 C799.8,440.5 796.4,432.4 782.4,444.2 C774.2,451.1 757.1,453.4 749.9,456.6 C737.6,462.2 739.8,467.2 716.4,474.8 C696.4,481.3 703.8,482.5 691.3,488.4 L670.2,496.9 C661.9,499.2 660.6,505.7 651,507 C644.1,507.6 644.1,509.3 626.9,510.3 C621.8,510.6 611.9,514.7 607.5,517.2 C602.6,519.9 594.2,523.1 590.6,526.1 C584.5,531.1 577.9,529.7 574.8,537.7 L575,537.1 C551.7,544.4 550.2,549.8 544.4,552.6 z" fill="#DBB22B" opacity="0.7"/>
        <path d="M70.4,213.9 C77.3,220.6 83.1,233.5 89.3,241.5 C98.4,253.4 107.8,265.2 116.6,277.3 C125.3,289.2 134.7,299.7 147.9,306.9 C165.8,316.7 179.2,330.7 195.3,342.4 C211.3,354 221.8,372.1 235.4,386.6 C248,400 258.7,413.5 268.4,429.1 C280.1,448 291.4,467.6 300.1,488.1 C303.7,496.5 304.3,505.8 307.6,514 C310.1,520.2 307.3,519.9 314.3,518.9 C323.2,517.6 326.9,512.1 328.7,505.2 C338.8,465.5 324.8,435 308.7,400.3 C296,372.9 284.5,339.8 265.9,315.7 C226.7,264.9 163.4,232.5 135,173.4 C129.5,162.1 124.7,151.6 121.2,139.2 C117.8,127.1 117.9,126.9 106.7,126.9 C98.3,126.9 74.6,122.7 70.3,130 C68.6,132.9 70.3,141.8 70.3,145.2 C70.3,154.6 70.3,164 70.3,173.4 C70.4,186.8 70.4,200.4 70.4,213.9 z M70.4,237.9 C70.4,247 70.4,256.1 70.4,265.2 C70.4,274.6 67.6,289.1 70.4,298.2 C74.2,310.3 86.2,313.7 95.1,321.8 C104.7,330.4 138.2,363.9 146.7,369.8 C155.4,375.9 160.6,383.8 169.3,390 C191.1,405.5 206.4,432.6 221.7,454.9 C227.6,463.5 252.4,507.4 256.9,520.9 C258.4,525.4 258.2,532.9 260.9,536.7 C265.7,543.4 271.5,538.1 279.4,534.8 C290.3,530.3 301,529.6 300.1,517.1 C299.6,509.9 296.8,502.3 294.4,495.5 C284.2,467 268.4,439.6 250.8,415.1 C235.6,393.9 215.1,368.4 193.7,353.1 C187.2,348.5 168.4,331.5 162.8,327.9 C154.5,322.7 130,304.5 125.2,300.4 C103.1,282.2 87.1,260.5 70.4,237.9 z M70.4,326.3 C70.4,341.4 70.4,356.5 70.4,371.6 C70.4,376 68.5,386.2 70.4,390.3 C73.3,396.4 86.4,399.6 92.4,402.9 C115.9,415.8 135,434.5 150.7,456.1 C170.5,483.3 189,512.5 204,542.6 C205.5,545.6 207.7,554.5 210.4,556.1 C215.4,559 226.4,553.7 231.7,552 C236.8,550.4 244.8,550.2 246.2,544.7 C247.6,539.6 240.2,528.8 238.4,525.7 C234.6,519.2 231.2,512.6 228.9,505.1 C226.3,496.6 222.1,493.5 216.2,486.7 C202.1,470.6 192.6,450.3 177.6,436.3 C171.8,430.9 168.4,423.5 162.6,417.6 C155,409.9 147.7,401.8 140.4,393.9 C118.4,370 94.3,348.4 70.4,326.3 z M70.4,400.1 C70.4,411.6 70.4,423.1 70.4,434.7 C70.4,449.2 67.2,457.9 78.7,467.3 C98.2,483.2 117.4,499.6 135.5,517.2 C146.6,527.9 157.3,539.1 167.3,550.8 C176.5,561.6 180.2,568.4 195.7,561.8 C207.3,556.8 199.9,555.3 196.2,547.9 C193.4,542.3 191.9,536.3 188.9,530.6 C180,513.8 169.6,497.7 159,482 C136.9,449.5 107.7,414.5 70.4,400.1 z M70.4,469 C70.4,490.6 70.4,512.1 70.4,533.7 C70.4,539.6 68.2,550.7 70.4,556.3 C73,563.2 82.8,566.5 88.7,570.3 C99.1,577 107.1,575.1 119.6,574 C132.9,572.8 147.7,572.2 160.7,568.8 C174.3,565.3 165.5,560.8 158.1,552.9 C144.3,538.1 131,524.5 116.8,510.4 C101.8,495.5 87.4,482.3 70.4,469 z M70.4,569.9 C70.4,572 70.4,574.1 70.4,576.3 C73.5,576.3 76.6,576.3 79.7,576.2 C77.8,573.5 73.8,572.2 70.4,569.9 z M345.4,501.5 C358.5,493.7 370.1,487.2 378.9,474.9 C386,465 394.9,449.5 404.2,441.7 C423,425.8 445.5,421.6 462.6,403.6 C482.8,382.4 499.7,356.2 514.1,330.8 C521.3,318.1 520.7,313.4 508.4,323.9 C500.5,330.6 493.3,338.2 485.2,344.6 C474.6,353.1 462.7,360.2 451.4,367.6 C446.7,370.7 440.7,373.4 436.4,377.2 C434.6,378.8 429.1,383.7 427.6,385.1 C410.4,401.1 392.3,413.8 378.6,433.3 C364.4,453.8 352.5,477.5 345.4,501.5 z M391.6,470.2 C405.8,459.3 419.4,447.8 432.2,435.6 C419,431.5 397.7,452.9 391.6,470.2 z M540.5,275.6 C544.3,265.9 547.7,256 550.7,246 C552,241.7 559,225 557.2,221.6 C556,219.4 545.6,216.7 548.4,212 C550.2,209 556.6,212.5 559.1,210.9 C567.4,205.5 558.8,192.9 555.4,188 C551.2,182 546.3,177.3 541.4,171.9 C533.5,163.3 526.2,153.9 519.6,144.2 C516.2,139.2 512.3,129.9 505.7,128.8 C500.9,128 504.7,126.2 500.5,129.3 C499.5,130 496.7,139.9 496,141.7 C491.6,153.7 490,167.3 486.1,179.6 C477.8,205.8 467.7,233.4 451.5,255.9 C443.6,266.8 433.4,273.6 423.4,282.2 C410.8,293.1 399.3,306.7 388.1,319.2 C376.8,331.8 368.2,344.4 360.7,359.5 C358.3,364.2 354.1,368.9 352.5,373.7 C350.2,381.1 351.1,392.5 349.8,400.4 C348.5,408 338.8,440.2 344.6,446.6 C350,452.6 364.2,432.2 368.1,427.7 C377.4,416.9 386.1,405.1 396.8,395.6 C412.3,381.6 430.1,369.7 446.7,357 C479.3,332 512.7,306.4 540.5,275.6 z M488.7,126.8 C477.3,126.8 465.9,126.8 454.6,126.8 C446.7,126.8 427.6,123 420.5,126.8 C415.4,129.5 415,144.7 412.8,150.8 C409,161.5 403.8,171.7 398.7,181.7 C388.9,201.1 377.2,219.9 368.9,240 C362.9,254.7 353.5,273.1 351.9,288.6 C350.9,297.6 351.7,307.2 351.5,316.2 C351.4,321.1 347.5,343.4 350.6,347 C355.3,352.6 363.7,337.9 367,333.8 C373.7,325.6 380.3,317.2 387,309 C401.8,290.7 421.1,277.3 436.7,259.8 C451.3,243.4 460.4,222 468.7,202 C478.2,178.7 488.1,152.6 488.7,126.8 z M409.9,126.8 C388.3,126.8 366.7,126.8 345.1,126.8 C333.9,126.8 328.1,123.3 329.5,135.5 C332,156.6 341,177.6 344.2,198.9 C345.2,205.7 345,251.1 350.6,252.2 C356.1,253.3 370.6,219.1 373,214.6 C387.2,187.5 404.9,157.3 409.9,126.8 z M315.2,126.8 C306.7,126.8 298.3,126.8 289.8,126.8 C283.2,126.8 264.3,123.3 258.7,126.8 C253.4,130.1 257.7,132.2 261,136.9 C266.4,144.6 272.1,152 277.5,159.7 C288.1,174.7 300.4,188.2 310.8,203.2 C316.6,211.5 322,220.2 326.1,229.5 C327,231.5 331.1,249.1 332,249.7 C338.5,254.2 335.7,232.1 335.7,228.1 C336.2,193.8 327.2,159 315.2,126.8 z M244.1,126.8 C239.2,126.8 231,125 226.6,126.8 C217.8,130.3 226.9,136.9 232,142.6 C240.5,152.2 249.8,161 258.7,170.2 C264.4,176.1 269.6,183 275.7,188.5 C277.1,189.8 279.9,189.9 281,191.2 C286.9,198.2 291.9,207.2 297.8,214.6 C300,217.4 313.1,238.1 316,227.2 C317.1,223.1 309,214 306.8,211.1 C298.9,200.4 290.9,189.7 283,179 C270.1,161.6 256.8,144.4 244.1,126.8 z M206.1,126.8 C200.1,126.8 191.1,125 185.4,126.8 C174.8,130.1 185.3,142 189.9,150 C205.6,177.3 226.4,201.2 245,226.5 C253.7,238.2 264.8,248 272.8,260.2 C280.2,271.4 287.1,283.1 294.3,294.4 C308.6,316.8 320.6,339.9 324,366.6 C325.1,375.4 323.4,386.7 326,395.3 C328.4,403.4 331.4,404.5 335.3,398.6 C342.3,388 340,375.7 339.9,363.4 C339.7,348.6 342.4,330.4 339.3,315.9 C337.9,309.4 332.7,305.2 329.9,299 C327.1,292.9 327.5,286.5 325.6,280.4 C323.5,273.6 318.9,268.2 314.8,262 C298.6,237.5 277.8,218.5 257,198.1 C236.6,178 218.6,152.5 206.1,126.8 z M170.7,126.8 C163,126.8 155.3,126.8 147.6,126.8 C135.4,126.8 133.1,125.9 137.5,139.9 C142,154.3 149.8,170.2 159.2,182.5 C189.5,222.4 228.2,255 261.7,292.1 C274.8,306.6 284.6,323.6 297.2,338.3 C311.2,354.7 306.7,332.1 302,322.3 C286.8,290.3 266,264.2 243.4,237.7 C215.2,204.7 185.1,168 170.7,126.8 z" fill="#64C4AA"/>
      </g>
      <path d="M108.1,638.7 C119.5,638.7 133.2,641.1 144.7,645.5 L144.7,710 C144.7,719.8 146.6,721.4 156,719.4 L158.8,733.3 C155.4,734.4 150,735.6 144.5,735.6 C135.9,735.6 130.6,733 127.8,724.5 L127,724.5 C118.6,731.8 109.9,736.3 99,736.3 C80.8,736.3 70.3,727.5 70.3,693 C70.4,649.4 83.5,638.7 108.1,638.7 z M90.4,690.1 C90.4,715.8 95.5,719.4 103.7,719.4 C112.5,719.4 119.8,714 124.7,708.9 L124.7,657.9 C120.6,656.8 115.9,655.6 109.3,655.6 C97,655.6 90.4,660.8 90.4,690.1 z" fill="#DBB22B"/>
      <path d="M172.8,640.4 L190.2,640.4 L191.3,649.8 L192.1,649.8 C199.2,643.8 207.9,638.7 220.2,638.7 C232.4,638.7 245,644.7 245,667 L245,734.5 L225.1,734.5 L225.1,669.8 C225.1,659.3 221.2,655.5 213.8,655.5 C205,655.5 197.7,660.9 192.6,666.2 L192.6,734.5 L172.7,734.5 L172.7,640.4 z" fill="#DBB22B"/>
      <path d="M291.4,719.8 C281.1,718.5 266.4,711.4 266.4,684.7 C266.4,653.6 280.7,638.7 305.2,638.7 C316.1,638.7 329,641 340.7,645.3 L340.7,734.6 C340.7,761.1 328.3,778.3 301.9,778.3 C281.8,778.3 270.8,767.6 270.8,751.1 C270.8,736.5 280.2,726.5 291.4,720.1 L291.4,719.8 z M320.7,657.8 C316.6,656.7 312.4,655.5 306.4,655.5 C295.9,655.5 286.5,660 286.5,685 C286.5,703.4 294.8,712.6 312.6,706 C316.2,705.4 320.7,702.6 320.7,702.6 L320.7,657.8 z M321,719 C320.2,719.4 314.4,721.4 307.3,725.8 C297.5,731.2 289.7,738.6 289.7,748.9 C289.7,757.5 295.5,762 302.8,762 C315.2,762 321,752.2 321,735.2 L321,719 z" fill="#DBB22B"/>
      <path d="M362.3,689 C362.3,656.5 371.3,638.2 401.7,638.2 C432.1,638.2 440,656.5 440,689 C440,721.6 430.8,736.8 400.4,736.8 C370,736.8 362.3,721.6 362.3,689 z M419.9,688.8 C419.9,665.2 415,655 401.1,655 C387.2,655 382.3,664.9 382.3,688.8 C382.3,713.2 387.2,719.9 400.9,719.9 C414.8,719.9 419.9,713.2 419.9,688.8 z" fill="#DBB22B"/>
      <path d="M497,734.4 C493.8,735.3 487.8,736.3 480.9,736.3 C469.1,736.3 461.4,732 461.4,711.7 L461.4,599.1 L481.5,599.1 L481.5,710.7 C481.5,718.6 483.8,719.3 487.9,719.3 C490.9,719.3 494.3,718.7 495,718.7 L497,734.4 z" fill="#DBB22B"/>
      <path d="M546,638.7 C557.4,638.7 571.1,641.1 582.6,645.5 L582.6,710 C582.6,719.8 584.5,721.4 593.9,719.4 L596.7,733.3 C593.3,734.4 587.9,735.6 582.4,735.6 C573.8,735.6 568.5,733 565.7,724.5 L564.9,724.5 C556.5,731.8 547.8,736.3 536.9,736.3 C518.7,736.3 508.2,727.5 508.2,693 C508.3,649.4 521.4,638.7 546,638.7 z M528.4,690.1 C528.4,715.8 533.5,719.4 541.7,719.4 C550.5,719.4 557.8,714 562.7,708.9 L562.7,657.9 C558.6,656.8 553.9,655.6 547.3,655.6 C534.9,655.6 528.4,660.8 528.4,690.1 z" fill="#DBB22B"/>
      <path d="M604.9,725.8 L644.3,657.3 L608.5,657.3 L608.5,640.4 L671,640.4 L671,648.5 L631.2,717.7 L673.6,717.7 L673.6,734.6 L604.9,734.6 L604.9,725.8 z" fill="#DBB22B"/>
      <path d="M692.5,603.8 L714.1,603.8 L714.1,622.9 L692.5,622.9 L692.5,603.8 z M693.3,640.4 L713.4,640.4 L713.4,734.6 L693.3,734.6 L693.3,640.4 z" fill="#DBB22B"/>
      <path d="M735.7,689 C735.7,656.5 744.7,638.2 775.1,638.2 C805.5,638.2 813.4,656.6 813.4,689 C813.4,721.6 804.2,736.8 773.8,736.8 C743.4,736.8 735.7,721.6 735.7,689 z M793.3,688.8 C793.3,665.2 788.4,655 774.5,655 C760.6,655 755.7,664.9 755.7,688.8 C755.7,713.2 760.6,719.9 774.3,719.9 C788.2,719.9 793.3,713.2 793.3,688.8 z" fill="#DBB22B"/>
      <path d="M835.1,640.4 L852.5,640.4 L853.6,649.8 L854.4,649.8 C861.5,643.8 870.2,638.7 882.5,638.7 C894.7,638.7 907.3,644.7 907.3,667 L907.3,734.5 L887.4,734.5 L887.4,669.8 C887.4,659.3 883.5,655.5 876.1,655.5 C867.3,655.5 860,660.9 854.9,666.2 L854.9,734.5 L835,734.5 L835,640.4 z" fill="#DBB22B"/>
      <path d="M933.4,603.8 L955,603.8 L955,622.9 L933.4,622.9 L933.4,603.8 z M934.2,640.4 L954.3,640.4 L954.3,734.6 L934.2,734.6 L934.2,640.4 z" fill="#DBB22B"/>
      <path d="M75.2,801.8 L92.6,801.8 L93.7,811.2 L94.5,811.2 C100.1,805.2 108.4,800.5 119.1,800.5 C122.7,800.5 126,800.9 127.9,801.6 L125.1,820 C122.1,819.4 119.1,818.9 115.7,818.9 C106.5,818.9 98.8,824 95.1,829 L95.1,896 L75.2,896 L75.2,801.8 z" fill="#DBB22B"/>
      <path d="M133,850.4 C133,817.9 142,799.6 172.4,799.6 C202.8,799.6 210.7,818 210.7,850.4 C210.7,883 201.5,898.2 171.1,898.2 C140.7,898.2 133,883 133,850.4 z M190.6,850.2 C190.6,826.6 185.7,816.4 171.8,816.4 C157.9,816.4 153,826.3 153,850.2 C153,874.6 157.9,881.3 171.6,881.3 C185.5,881.3 190.6,874.6 190.6,850.2 z" fill="#DBB22B"/>
      <path d="M231.8,816.6 L218.3,816.6 L218.3,801.8 L232,801.8 L233.5,777.4 L251.9,775.5 L251.9,801.8 L276.1,801.8 L273.8,816.6 L251.8,816.6 L251.8,872.5 C251.8,880 254.2,880.8 260.1,880.8 C264.6,880.8 272.1,878.9 273,878.7 L276.2,894.1 C273.4,895.4 263.8,897.5 255.2,897.5 C239.6,897.5 231.7,893.7 231.7,872.9 L231.7,816.6 z" fill="#DBB22B"/>
      <path d="M287.7,850.4 C287.7,817.9 296.7,799.6 327.1,799.6 C357.5,799.6 365.4,818 365.4,850.4 C365.4,883 356.2,898.2 325.8,898.2 C295.4,898.2 287.7,883 287.7,850.4 z M345.3,850.2 C345.3,826.6 340.4,816.4 326.5,816.4 C312.6,816.4 307.7,826.3 307.7,850.2 C307.7,874.6 312.6,881.3 326.3,881.3 C340.3,881.3 345.3,874.6 345.3,850.2 z" fill="#DBB22B"/>
      <path d="M387.2,801.8 L404.6,801.8 L405.7,811.2 L406.5,811.2 C413.6,805.2 422.3,800.1 434.6,800.1 C446.8,800.1 459.4,806.1 459.4,828.4 L459.4,895.9 L439.5,895.9 L439.5,831.2 C439.5,820.7 435.6,816.9 428.2,816.9 C419.4,816.9 412.1,822.3 407,827.6 L407,895.9 L387.1,895.9 L387.1,801.8 z" fill="#DBB22B"/>
      <path d="M516.5,800.1 C524.9,800.1 531.1,801.8 535.3,803.1 L535.7,803.1 C535.7,803.1 535.3,796.3 535.3,785.8 L535.3,760.5 L555.2,760.5 L555.2,896 L537.8,896 L536.7,886.6 L536,886.6 C528.7,892.6 519.9,897.7 509.2,897.7 C491.4,897.7 480.9,888.9 480.9,854.4 C480.8,810.8 494.9,800.1 516.5,800.1 z M535.2,819.2 C531.1,817.9 525.1,816.9 519.8,816.9 C507.2,816.9 500.9,822.2 500.9,851.8 C500.9,877.1 506,880.7 514.4,880.7 C523,880.7 530.3,875.3 535.2,870.2 L535.2,819.2 z" fill="#DBB22B"/>
      <path d="M616.5,799.5 C644.8,799.5 651.2,816.6 651.2,829 C651.2,846.8 647.4,854.3 625.5,854.3 C618,854.3 604.9,853 597,850.7 L597,852.2 C597,874.9 602.8,881.3 617.8,881.3 C628.3,881.3 637.3,879 645.4,876.4 L648.8,891.4 C645.4,893.1 632.5,897.6 615,897.6 C585.5,897.6 576.9,881.8 576.9,848.6 C576.9,816.4 585.9,799.5 616.5,799.5 z M620,839.7 C630.3,839.7 631.4,835.4 631.4,829 C631.4,820.7 626.5,815.1 616,815.1 C604,815.1 598.2,821.5 597.4,836.1 C604.1,838.2 613.1,839.7 620,839.7 z" fill="#DBB22B"/>
    </g>
  </g>
</svg>
