<svg width="70" height="35" viewBox="0 0 70 35" fill="none" xmlns="http://www.w3.org/2000/svg">
<path d="M35 0C15.67 0 0 15.67 0 35H70C70 15.67 54.33 0 35 0Z" fill="#424242"/>
<path fill-rule="evenodd" clip-rule="evenodd" d="M50 21.242C49.9417 22.8455 48.6297 24.1574 47.0262 24.1574H46.6472C46.2974 25.207 45.4811 25.9942 44.4315 26.3732C42.5656 27.0437 40.4665 26.0525 39.8251 24.1574H30.4373C30.0875 25.207 29.2711 25.9942 28.2216 26.3732C26.3557 27.0437 24.2566 26.0525 23.6152 24.1574H22.9155C21.2828 24.1574 20 22.8746 20 21.242V20.3382C20 18.3557 21.5743 16.7813 23.5569 16.7813H26.4723L30.1166 13.137C30.8163 12.4373 31.8367 12 32.8863 12H40.6997C41.9825 12 43.2362 12.6122 44.0525 13.6618L46.035 16.2857L48.3382 16.898C49.3003 17.1604 50 18.0641 50 19.0262V21.242ZM27.0262 21.3586C27.93 21.3586 28.6589 22.1166 28.688 23.0204C28.7172 23.9242 27.9592 24.6822 27.0262 24.6822C26.1224 24.6822 25.3644 23.9242 25.3644 23.0204C25.3644 22.1166 26.1224 21.3586 27.0262 21.3586ZM43.207 21.3586C42.3032 21.3586 41.5452 22.1166 41.5452 23.0204C41.5452 23.9242 42.3032 24.6822 43.207 24.6822C44.1399 24.6822 44.8979 23.9242 44.8688 23.0204C44.8688 22.1166 44.1399 21.3586 43.207 21.3586Z" fill="white"/>
</svg>
