<svg width="120" height="120" viewBox="0 0 120 120" fill="none" xmlns="http://www.w3.org/2000/svg">
<circle cx="60" cy="60" r="60" fill="#ECBF02"/>
<path d="M59.5 45.5C51.765 45.5 45.5 51.765 45.5 59.5C45.5 67.235 51.765 73.5 59.5 73.5C67.235 73.5 73.5 67.235 73.5 59.5C73.5 51.765 67.235 45.5 59.5 45.5ZM90.79 56C89.18 41.405 77.595 29.82 63 28.21V21H56V28.21C41.405 29.82 29.82 41.405 28.21 56H21V63H28.21C29.82 77.595 41.405 89.18 56 90.79V98H63V90.79C77.595 89.18 89.18 77.595 90.79 63H98V56H90.79V56ZM59.5 84C45.955 84 35 73.045 35 59.5C35 45.955 45.955 35 59.5 35C73.045 35 84 45.955 84 59.5C84 73.045 73.045 84 59.5 84Z" fill="white"/>
</svg>
