<svg width="70" height="35" viewBox="0 0 70 35" fill="none" xmlns="http://www.w3.org/2000/svg">
<path d="M35 0C15.67 0 0 15.67 0 35H70C70 15.67 54.33 0 35 0Z" fill="#424242"/>
<path d="M41.92 13.01C41.72 12.42 41.16 12 40.5 12H38V10H32V12H29.5C28.84 12 28.29 12.42 28.08 13.01L26 19V27C26 27.55 26.45 28 27 28H28C28.55 28 29 27.55 29 27V26H41V27C41 27.55 41.45 28 42 28H43C43.55 28 44 27.55 44 27V19L41.92 13.01ZM29.5 23C28.67 23 28 22.33 28 21.5C28 20.67 28.67 20 29.5 20C30.33 20 31 20.67 31 21.5C31 22.33 30.33 23 29.5 23ZM40.5 23C39.67 23 39 22.33 39 21.5C39 20.67 39.67 20 40.5 20C41.33 20 42 20.67 42 21.5C42 22.33 41.33 23 40.5 23ZM28 18L29.5 13.5H40.5L42 18H28Z" fill="white"/>
</svg>
