<svg width="21" height="17" viewBox="0 0 21 17" fill="none" xmlns="http://www.w3.org/2000/svg">
<path d="M20.54 1.91205C19.8039 2.24665 19.0104 2.46654 18.1882 2.5717C19.0295 2.06501 19.6796 1.26195 19.9855 0.296367C19.192 0.774379 18.3125 1.10899 17.3852 1.30019C16.6299 0.478012 15.5687 0 14.3641 0C12.1175 0 10.2819 1.83556 10.2819 4.10134C10.2819 4.42639 10.3202 4.74187 10.3871 5.03824C6.98363 4.86616 3.95304 3.23136 1.93583 0.755258C1.5821 1.35755 1.38134 2.06501 1.38134 2.81071C1.38134 4.23518 2.09836 5.49713 3.20734 6.21415C2.52857 6.21415 1.89759 6.02295 1.3431 5.73614C1.3431 5.73614 1.3431 5.73614 1.3431 5.76482C1.3431 7.75335 2.75801 9.41683 4.63182 9.78968C4.28765 9.88528 3.92436 9.93308 3.55151 9.93308C3.29339 9.93308 3.03526 9.9044 2.78669 9.8566C3.30295 11.4723 4.8039 12.6769 6.61079 12.7055C5.21499 13.8145 3.44635 14.4646 1.51518 14.4646C1.19013 14.4646 0.865087 14.4455 0.540039 14.4073C2.35648 15.5736 4.51709 16.2524 6.83067 16.2524C14.3641 16.2524 18.5037 10 18.5037 4.57935C18.5037 4.39771 18.5037 4.22562 18.4942 4.04398C19.2972 3.47036 19.9855 2.74379 20.54 1.91205Z" fill="#424242"/>
</svg>
